<svg width="28" height="28" viewBox="0 0 28 28" fill="none" xmlns="http://www.w3.org/2000/svg">
<g clip-path="url(#clip0_6203_8513)">
<path d="M6.08405 11.3755H3.17627V21.0248H6.08405V11.3755Z" fill="#E283D9"/>
<path d="M12.3301 11.3755H9.42236V21.0248H12.3301V11.3755Z" fill="#E283D9"/>
<path d="M18.5772 11.3755H15.6694V21.0248H18.5772V11.3755Z" fill="#E283D9"/>
<path d="M24.8238 11.3755H21.916V21.0248H24.8238V11.3755Z" fill="#E283D9"/>
<path opacity="0.15" d="M6.08405 11.3755H3.17627V13.1937H6.08405V11.3755Z" fill="#293133"/>
<path d="M6.77807 9.63721H2.48193V11.9819H6.77807V9.63721Z" fill="#CB01B7"/>
<path opacity="0.15" d="M6.08405 19.207H3.17627V21.0253H6.08405V19.207Z" fill="#293133"/>
<path d="M6.77807 20.4189H2.48193V23.3697H6.77807V20.4189Z" fill="#CB01B7"/>
<path opacity="0.15" d="M12.3306 11.3755H9.42285V13.1937H12.3306V11.3755Z" fill="#293133"/>
<path d="M13.0246 9.63721H8.72852V11.9819H13.0246V9.63721Z" fill="#CB01B7"/>
<path opacity="0.15" d="M12.3306 19.207H9.42285V21.0253H12.3306V19.207Z" fill="#293133"/>
<path d="M13.0246 20.4189H8.72852V23.3697H13.0246V20.4189Z" fill="#CB01B7"/>
<path opacity="0.15" d="M18.5772 11.3755H15.6694V13.1937H18.5772V11.3755Z" fill="#293133"/>
<path d="M19.2717 9.63721H14.9756V11.9819H19.2717V9.63721Z" fill="#CB01B7"/>
<path opacity="0.15" d="M18.5772 19.207H15.6694V21.0253H18.5772V19.207Z" fill="#293133"/>
<path d="M19.2717 20.4189H14.9756V23.3697H19.2717V20.4189Z" fill="#CB01B7"/>
<path opacity="0.15" d="M24.8238 11.3755H21.916V13.1937H24.8238V11.3755Z" fill="#293133"/>
<path d="M25.5178 9.63721H21.2217V11.9819H25.5178V9.63721Z" fill="#CB01B7"/>
<path opacity="0.15" d="M24.8238 19.207H21.916V21.0253H24.8238V19.207Z" fill="#293133"/>
<path d="M25.5178 20.4189H21.2217V23.3697H25.5178V20.4189Z" fill="#CB01B7"/>
<path d="M27.7245 9.09668L16.5655 1.49399C15.0177 0.439504 12.9822 0.439504 11.4344 1.49399L0.275467 9.09668C-0.235149 9.44455 0.0111083 10.2432 0.628912 10.2432H27.371C27.9888 10.2432 28.2351 9.44455 27.7245 9.09668Z" fill="#CB01B7" fill-opacity="0.35"/>
<path d="M25.4651 22.7637H2.53493C1.49335 22.7637 0.648926 23.608 0.648926 24.6497V26.2307H27.351V24.6496C27.351 23.608 26.5067 22.7637 25.4651 22.7637Z" fill="#CB01B7" fill-opacity="0.35"/>
<path opacity="0.15" d="M28 25.9697H0V27.2967H28V25.9697Z" fill="#293133"/>
<path d="M28 24.6499H0V27.2972H28V24.6499Z" fill="#E283D9"/>
<path opacity="0.15" d="M28 25.9697H0V27.2967H28V25.9697Z" fill="#293133"/>
<path d="M13.9996 7.58767C15.021 7.58767 15.8489 6.75973 15.8489 5.73842C15.8489 4.7171 15.021 3.88916 13.9996 3.88916C12.9783 3.88916 12.1504 4.7171 12.1504 5.73842C12.1504 6.75973 12.9783 7.58767 13.9996 7.58767Z" fill="#CB01B7"/>
<path opacity="0.15" d="M13.161 5.73847C13.161 4.89235 13.7294 4.17944 14.5052 3.9596C14.3446 3.9141 14.1753 3.88916 14.0001 3.88916C12.9788 3.88916 12.1509 4.71713 12.1509 5.73841C12.1509 6.75976 12.9788 7.58767 14.0001 7.58767C14.1754 7.58767 14.3446 7.56279 14.5052 7.51723C13.7294 7.2975 13.161 6.58465 13.161 5.73847Z" fill="#293133"/>
</g>
<defs>
<clipPath id="clip0_6203_8513">
<rect width="28" height="28" fill="white"/>
</clipPath>
</defs>
</svg>
