<svg width="28" height="28" viewBox="0 0 28 28" fill="none" xmlns="http://www.w3.org/2000/svg">
<path d="M14 28C21.732 28 28 21.732 28 14C28 6.26801 21.732 0 14 0C6.26801 0 0 6.26801 0 14C0 21.732 6.26801 28 14 28Z" fill="#52CB01"/>
<path d="M26.6398 20.025L22.566 9.83172C22.1528 8.69138 21.0783 7.875 19.8021 7.875L8.34378 7.875C6.70622 7.875 5.25 9.21681 5.25 10.8655L5.25 17.1345C5.25 17.5508 5.34341 17.9473 5.50856 18.3074L9.01447 27.0826C10.5639 27.673 12.2432 27.9996 14.0002 27.9996C19.5748 28 24.3878 24.7415 26.6398 20.025Z" fill="#31AF03"/>
<path d="M20.1828 8.3125L8.72443 8.3125C7.08687 8.3125 5.56152 9.65431 5.56152 11.303L5.56152 17.572C5.56152 19.2207 7.08687 20.5625 8.72443 20.5625L20.1828 20.5625C21.8203 20.5625 23.0615 19.2207 23.0615 17.572L23.0615 11.303C23.0615 9.65431 21.8203 8.3125 20.1828 8.3125Z" fill="#8C8331"/>
<path d="M19.7453 7.875L8.28693 7.875C6.64937 7.875 5.12402 9.21681 5.12402 10.8655L5.12402 17.1345C5.12402 18.7832 6.64937 20.125 8.28693 20.125L19.7453 20.125C21.3828 20.125 22.624 18.7832 22.624 17.1345L22.624 10.8655C22.624 9.21681 21.3828 7.875 19.7453 7.875Z" fill="#FFD464"/>
<path d="M22.624 10.9375L5.12402 10.9375L5.12402 12.4688L22.624 12.4688V10.9375Z" fill="#3B3B3B"/>
<path d="M12.6129 10.9375L5.25 10.9375L5.25 12.4688L11.9943 12.4688L12.6129 10.9375Z" fill="#45433E"/>
</svg>
