<svg width="60" height="60" viewBox="0 0 60 60" fill="none" xmlns="http://www.w3.org/2000/svg">
<path d="M36.5626 17.8125C32.5687 17.8195 28.6628 18.9858 25.3191 21.17C21.9755 23.3542 19.3379 26.4621 17.7266 30.1165C16.1153 33.7709 15.5997 37.8145 16.2424 41.7563C16.8851 45.6981 18.6583 49.3685 21.3469 52.3219L16.2094 57.4594C16.0329 57.6359 15.9337 57.8753 15.9337 58.125C15.9337 58.3746 16.0329 58.6141 16.2094 58.7906C16.386 58.9671 16.6254 59.0663 16.8751 59.0663C17.1247 59.0663 17.3641 58.9671 17.5407 58.7906L22.6782 53.6531C25.1531 55.9179 28.1432 57.5449 31.3891 58.3928C34.635 59.2407 38.0388 59.2841 41.3052 58.5191C44.5716 57.754 47.6022 56.2038 50.134 54.0027C52.6658 51.8016 54.6225 49.0162 55.8344 45.8879C57.0462 42.7596 57.4767 39.3829 57.0885 36.0506C56.7002 32.7183 55.505 29.531 53.6064 26.7651C51.7078 23.9992 49.1632 21.7382 46.1931 20.1782C43.2231 18.6181 39.9174 17.8061 36.5626 17.8125ZM45.9376 33.75C45.9376 38.9714 43.8633 43.979 40.1712 47.6711C36.4791 51.3633 31.4715 53.4375 26.2501 53.4375H22.8844L28.5094 47.8125H33.7501C33.9987 47.8125 34.2372 47.7137 34.413 47.5379C34.5888 47.3621 34.6876 47.1236 34.6876 46.875C34.6876 46.6263 34.5888 46.3879 34.413 46.2121C34.2372 46.0362 33.9987 45.9375 33.7501 45.9375H30.3844C30.4876 45.8437 37.3501 38.9719 36.9469 39.375H41.2501C41.4987 39.375 41.7372 39.2762 41.913 39.1004C42.0888 38.9246 42.1876 38.6861 42.1876 38.4375C42.1876 38.1888 42.0888 37.9504 41.913 37.7746C41.7372 37.5987 41.4987 37.5 41.2501 37.5H38.8219L41.9157 34.4156C42.0031 34.3282 42.0724 34.2244 42.1197 34.1102C42.167 33.996 42.1914 33.8736 42.1914 33.75C42.1914 33.6264 42.167 33.504 42.1197 33.3897C42.0724 33.2755 42.0031 33.1718 41.9157 33.0844C41.8283 32.9969 41.7245 32.9276 41.6103 32.8803C41.4961 32.833 41.3737 32.8086 41.2501 32.8086C41.1264 32.8086 41.004 32.833 40.8898 32.8803C40.7756 32.9276 40.6718 32.9969 40.5844 33.0844L35.8969 37.7719L31.8751 41.8031V38.4375C31.8751 38.1888 31.7763 37.9504 31.6005 37.7746C31.4247 37.5987 31.1862 37.5 30.9376 37.5C30.6889 37.5 30.4505 37.5987 30.2746 37.7746C30.0988 37.9504 30.0001 38.1888 30.0001 38.4375V43.6781L27.4594 46.2094L21.5626 52.1156V48.75C21.5626 43.5285 23.6368 38.5209 27.3289 34.8288C31.021 31.1367 36.0286 29.0625 41.2501 29.0625H45.0001C45.2487 29.0625 45.4872 29.1612 45.663 29.3371C45.8388 29.5129 45.9376 29.7513 45.9376 30V33.75Z" fill="#EFB135"/>
<path d="M38.4375 18.75C38.4417 15.6454 37.6343 12.5936 36.0955 9.89723C34.5567 7.20082 32.3398 4.95343 29.6647 3.37787C26.9896 1.80231 23.9491 0.953293 20.8448 0.914991C17.7404 0.87669 14.6799 1.65043 11.9667 3.15952C9.25357 4.6686 6.98195 6.86061 5.37706 9.51823C3.77218 12.1758 2.88978 15.2068 2.81735 18.3105C2.74492 21.4143 3.48496 24.4831 4.96412 27.2127C6.44327 29.9423 8.61017 32.2379 11.25 33.8719V43.125C11.25 44.3682 11.7438 45.5605 12.6229 46.4396C13.502 47.3187 14.6943 47.8125 15.9375 47.8125H25.3125C26.5557 47.8125 27.748 47.3187 28.627 46.4396C29.5061 45.5605 30 44.3682 30 43.125V33.8719C32.5722 32.2725 34.6959 30.0457 36.1717 27.4007C37.6476 24.7556 38.4272 21.779 38.4375 18.75ZM21.5625 25.3125C21.5625 23.0748 22.4514 20.9287 24.0338 19.3463C25.6161 17.764 27.7622 16.875 30 16.875H30.9375V17.8125C30.9375 20.0503 30.0485 22.1964 28.4662 23.7787C26.8839 25.3611 24.7377 26.25 22.5 26.25H21.5625V25.3125ZM19.6875 26.25H18.75C16.5122 26.25 14.3661 25.3611 12.7838 23.7787C11.2014 22.1964 10.3125 20.0503 10.3125 17.8125V16.875H11.25C13.4877 16.875 15.6339 17.764 17.2162 19.3463C18.7985 20.9287 19.6875 23.0748 19.6875 25.3125V26.25ZM28.125 34.2844V36.5625H13.125V34.2844H28.125ZM13.125 38.4375H28.125V41.25H13.125V38.4375ZM25.3125 45.9375H15.9375C15.1916 45.9375 14.4762 45.6412 13.9487 45.1138C13.4213 44.5863 13.125 43.871 13.125 43.125H28.125C28.125 43.871 27.8287 44.5863 27.3012 45.1138C26.7738 45.6412 26.0584 45.9375 25.3125 45.9375ZM28.8094 32.4094H21.5625V28.125H22.5C23.8542 28.125 25.1952 27.8583 26.4464 27.34C27.6976 26.8218 28.8344 26.0622 29.792 25.1046C30.7496 24.147 31.5092 23.0101 32.0275 21.759C32.5457 20.5078 32.8125 19.1668 32.8125 17.8125V15.9375C32.8125 15.6889 32.7137 15.4504 32.5379 15.2746C32.3621 15.0988 32.1236 15 31.875 15H30C28.023 15.0019 26.0882 15.572 24.4261 16.6424C22.764 17.7128 21.4445 19.2384 20.625 21.0375C19.8054 19.2384 18.486 17.7128 16.8239 16.6424C15.1618 15.572 13.227 15.0019 11.25 15H9.37498C9.12634 15 8.88789 15.0988 8.71207 15.2746C8.53626 15.4504 8.43748 15.6889 8.43748 15.9375V17.8125C8.43748 20.5476 9.52398 23.1706 11.4579 25.1046C13.3919 27.0385 16.0149 28.125 18.75 28.125H19.6875V32.4094H12.4406C9.44853 30.6187 7.12629 27.8962 5.82989 24.6592C4.53349 21.4221 4.33449 17.8493 5.26338 14.4883C6.19228 11.1273 8.19782 8.16371 10.9725 6.05184C13.7472 3.93997 17.138 2.79638 20.625 2.79638C24.112 2.79638 27.5027 3.93997 30.2774 6.05184C33.0522 8.16371 35.0577 11.1273 35.9866 14.4883C36.9155 17.8493 36.7165 21.4221 35.4201 24.6592C34.1237 27.8962 31.8014 30.6187 28.8094 32.4094Z" fill="#5A3D00"/>
</svg>
