<svg width="54" height="55" viewBox="0 0 54 55" fill="none" xmlns="http://www.w3.org/2000/svg">
<g clip-path="url(#clip0_6810_1908)">
<path d="M52.9457 27.5C52.9457 41.8293 41.3293 53.4457 27 53.4457C12.6707 53.4457 1.05469 41.8293 1.05469 27.5C1.05469 13.1707 12.6707 1.55469 27 1.55469C41.3293 1.55469 52.9457 13.1707 52.9457 27.5Z" fill="#9CD169"/>
<path d="M26.9934 54.5C26.3046 54.5 25.6149 54.4736 24.924 54.4209C18.5077 53.929 12.4647 51.1485 7.9081 46.5923C2.80852 41.4923 0 34.7122 0 27.5C0 20.2882 2.80852 13.5077 7.9081 8.4081C13.0077 3.30852 19.7882 0.5 27 0.5C34.2122 0.5 40.9923 3.30852 46.0923 8.4081C50.6485 12.9647 53.429 19.0077 53.9209 25.424C54.4075 31.7707 52.64 38.0967 48.9445 43.2375C48.6046 43.7105 47.9454 43.818 47.4725 43.4781C46.9995 43.1382 46.892 42.479 47.2319 42.0061C54.3749 32.0702 53.2683 18.5677 44.6005 9.89949C34.8957 0.194717 19.1047 0.194717 9.3999 9.89949C-0.305283 19.6047 -0.305283 35.3953 9.3999 45.1005C18.0677 53.7679 31.5706 54.8749 41.5065 47.7315C41.9794 47.3916 42.6382 47.4995 42.9785 47.9725C43.3184 48.4454 43.2105 49.1042 42.7375 49.4445C38.1562 52.7379 32.6331 54.5 26.9934 54.5Z" fill="#6FAD33"/>
<path d="M45.3467 46.9014C45.069 46.9014 44.7971 46.7885 44.601 46.5924C44.4049 46.3959 44.292 46.1239 44.292 45.8467C44.292 45.569 44.4049 45.2971 44.601 45.101C44.7971 44.9049 45.069 44.792 45.3467 44.792C45.6239 44.792 45.8959 44.9049 46.0924 45.101C46.2885 45.2971 46.4014 45.569 46.4014 45.8467C46.4014 46.1239 46.2885 46.3959 46.0924 46.5924C45.8959 46.7885 45.6239 46.9014 45.3467 46.9014Z" fill="#6FAD33"/>
</g>
<rect x="11.7776" y="27.3242" width="5.51093" height="16.7071" rx="2.75546" transform="rotate(-35.6677 11.7776 27.3242)" fill="#6FAD33"/>
<rect x="41.2344" y="18.5" width="5.28354" height="28.9214" rx="2.64177" transform="rotate(51.2272 41.2344 18.5)" fill="#6FAD33"/>
<defs>
<clipPath id="clip0_6810_1908">
<rect width="54" height="54" fill="white" transform="translate(0 0.5)"/>
</clipPath>
</defs>
</svg>
