<svg width="54" height="54" viewBox="0 0 54 54" fill="none" xmlns="http://www.w3.org/2000/svg">
<g clip-path="url(#clip0_6773_1908)">
<path d="M52.9457 27C52.9457 41.3293 41.3293 52.9457 27 52.9457C12.6707 52.9457 1.05469 41.3293 1.05469 27C1.05469 12.6707 12.6707 1.05469 27 1.05469C41.3293 1.05469 52.9457 12.6707 52.9457 27Z" fill="#9CD169"/>
<path d="M26.9934 54C26.3046 54 25.6149 53.9736 24.924 53.9209C18.5077 53.429 12.4647 50.6485 7.9081 46.0923C2.80852 40.9923 0 34.2122 0 27C0 19.7882 2.80852 13.0077 7.9081 7.9081C13.0077 2.80852 19.7882 0 27 0C34.2122 0 40.9923 2.80852 46.0923 7.9081C50.6485 12.4647 53.429 18.5077 53.9209 24.924C54.4075 31.2707 52.64 37.5967 48.9445 42.7375C48.6046 43.2105 47.9454 43.318 47.4725 42.9781C46.9995 42.6382 46.892 41.979 47.2319 41.5061C54.3749 31.5702 53.2683 18.0677 44.6005 9.39949C34.8957 -0.305283 19.1047 -0.305283 9.3999 9.39949C-0.305283 19.1047 -0.305283 34.8953 9.3999 44.6005C18.0677 53.2679 31.5706 54.3749 41.5065 47.2315C41.9794 46.8916 42.6382 46.9995 42.9785 47.4725C43.3184 47.9454 43.2105 48.6042 42.7375 48.9445C38.1562 52.2379 32.6331 54 26.9934 54Z" fill="#6FAD33"/>
<path d="M45.3466 46.4013C45.0689 46.4013 44.797 46.2884 44.6009 46.0923C44.4048 45.8958 44.2919 45.6239 44.2919 45.3466C44.2919 45.0689 44.4048 44.797 44.6009 44.6009C44.797 44.4048 45.0689 44.2919 45.3466 44.2919C45.6239 44.2919 45.8958 44.4048 46.0923 44.6009C46.2884 44.797 46.4013 45.0689 46.4013 45.3466C46.4013 45.6239 46.2884 45.8958 46.0923 46.0923C45.8958 46.2884 45.6239 46.4013 45.3466 46.4013Z" fill="#6FAD33"/>
</g>
<rect x="11.7776" y="26.8242" width="5.51093" height="16.7071" rx="2.75546" transform="rotate(-35.6677 11.7776 26.8242)" fill="#6FAD33"/>
<rect x="41.2344" y="18" width="5.28354" height="28.9214" rx="2.64177" transform="rotate(51.2272 41.2344 18)" fill="#6FAD33"/>
<defs>
<clipPath id="clip0_6773_1908">
<rect width="54" height="54" fill="white"/>
</clipPath>
</defs>
</svg>
