<svg width="60" height="60" viewBox="0 0 60 60" fill="none" xmlns="http://www.w3.org/2000/svg">
<path d="M35.625 10.7812C30.9895 10.7813 26.4581 12.1558 22.6038 14.7312C18.7496 17.3065 15.7455 20.967 13.9716 25.2496C12.1977 29.5323 11.7335 34.2447 12.6379 38.7912C13.5422 43.3376 15.7744 47.5138 19.0522 50.7916C22.33 54.0694 26.5062 56.3016 31.0526 57.2059C35.599 58.1102 40.3115 57.6461 44.5942 55.8722C48.8768 54.0982 52.5372 51.0942 55.1126 47.2399C57.6879 43.3857 59.0625 38.8542 59.0625 34.2188C59.0556 28.0049 56.584 22.0475 52.1901 17.6536C47.7963 13.2597 41.8389 10.7882 35.625 10.7812ZM20.9503 40.4419C19.7122 37.5185 19.375 34.2921 19.982 31.1759C20.5889 28.0598 22.1124 25.1958 24.3573 22.9508C26.6021 20.7059 29.466 19.1823 32.5822 18.5752C35.6983 17.9681 38.9247 18.3051 41.8481 19.5431C41.9895 19.603 42.114 19.6967 42.2107 19.816C42.3074 19.9353 42.3734 20.0765 42.4027 20.2272C42.4321 20.3779 42.4239 20.5335 42.3791 20.6804C42.3342 20.8272 42.2539 20.9608 42.1453 21.0694L22.4756 40.7391C22.3671 40.8474 22.2335 40.9275 22.0868 40.9723C21.9401 41.017 21.7846 41.0251 21.634 40.9958C21.4834 40.9664 21.3424 40.9006 21.2231 40.804C21.1039 40.7074 21.0103 40.5831 20.9503 40.4419ZM35.625 50.1562C33.4867 50.1599 31.3699 49.7306 29.4019 48.8944C29.2605 48.8345 29.136 48.7408 29.0393 48.6215C28.9426 48.5022 28.8767 48.361 28.8473 48.2103C28.818 48.0596 28.8261 47.904 28.871 47.7571C28.9158 47.6103 28.9961 47.4767 29.1047 47.3681L48.7744 27.6984C48.883 27.5901 49.0165 27.51 49.1632 27.4652C49.3099 27.4205 49.4654 27.4124 49.616 27.4417C49.7666 27.4711 49.9077 27.5369 50.0269 27.6335C50.1461 27.7301 50.2398 27.8544 50.2997 27.9956C51.3276 30.4192 51.7392 33.0596 51.4977 35.681C51.2561 38.3024 50.369 40.8232 48.9155 43.0181C47.4621 45.213 45.4875 47.0137 43.1684 48.2593C40.8492 49.5049 38.2575 50.1566 35.625 50.1562Z" fill="#D60000"/>
<path d="M46.8751 39.8438C41.7957 39.8438 41.4591 36.0938 35.6251 36.0938C29.7741 36.0938 29.506 39.8438 24.3751 39.8438C19.2094 39.8438 19.0313 36.0938 13.1298 36.0938C7.2807 36.0938 7.01257 39.8438 1.87976 39.8438C1.63112 39.8438 1.39266 39.9426 1.21685 40.1184C1.04103 40.2942 0.942261 40.5326 0.942261 40.7813C0.942261 41.0299 1.04103 41.2684 1.21685 41.4442C1.39266 41.62 1.63112 41.7188 1.87976 41.7188C7.72976 41.7188 7.99601 37.9688 13.1298 37.9688C18.2944 37.9688 18.4735 41.7188 24.3798 41.7188C30.2382 41.7188 30.4932 37.9688 35.6298 37.9688C40.7091 37.9688 41.0457 41.7188 46.8798 41.7188C47.1284 41.7188 47.3669 41.62 47.5427 41.4442C47.7185 41.2684 47.8173 41.0299 47.8173 40.7813C47.8173 40.5326 47.7185 40.2942 47.5427 40.1184C47.3669 39.9426 47.1284 39.8438 46.8798 39.8438H46.8751Z" fill="#512000"/>
<path d="M46.875 32.3438C41.8434 32.3438 41.6156 28.86 36.1688 28.6172L35.1759 22.9856C40.6603 22.7222 40.8581 26.7188 46.875 26.7188C47.1236 26.7188 47.3621 26.62 47.5379 26.4442C47.7137 26.2684 47.8125 26.0299 47.8125 25.7813C47.8125 25.5326 47.7137 25.2942 47.5379 25.1183C47.3621 24.9425 47.1236 24.8438 46.875 24.8438C41.7956 24.8438 41.4591 21.0938 35.625 21.0938C35.3662 21.0938 35.1084 21.105 34.8497 21.1228L33.7941 15.1369C33.7052 14.6216 33.4736 14.1415 33.1256 13.7513C32.7776 13.361 32.3271 13.0761 31.8253 12.9291L25.4503 11.0344L25.2263 9.75845C25.7159 9.67203 26.1512 9.39463 26.4364 8.98727C26.7216 8.57991 26.8333 8.07596 26.7469 7.58626L26.0906 3.89251C26.0041 3.40417 25.7277 2.96998 25.3218 2.68499C24.9159 2.4 24.4137 2.28742 23.925 2.37189L14.6925 4.00033C14.2028 4.08675 13.7675 4.36415 13.4823 4.7715C13.1972 5.17886 13.0855 5.68282 13.1719 6.17251L13.8234 9.86532C13.8999 10.2992 14.1267 10.6924 14.4641 10.9758C14.8014 11.2591 15.2278 11.4146 15.6684 11.415C15.7778 11.415 15.887 11.4053 15.9947 11.386L16.2197 12.6619L10.8816 16.6219C10.4605 16.9318 10.1347 17.3536 9.94119 17.8392C9.74764 18.3249 9.69408 18.8551 9.78656 19.3697L10.1616 21.4997C6.73781 22.5225 6.13781 24.8438 1.875 24.8438C1.62636 24.8438 1.3879 24.9425 1.21209 25.1183C1.03627 25.2942 0.9375 25.5326 0.9375 25.7813C0.9375 26.0299 1.03627 26.2684 1.21209 26.4442C1.3879 26.62 1.62636 26.7188 1.875 26.7188C6.57469 26.7188 7.75219 24.2878 10.4916 23.3635L11.4375 28.7241C6.85969 29.416 6.65625 32.3438 1.875 32.3438C1.62636 32.3438 1.3879 32.4425 1.21209 32.6184C1.03627 32.7942 0.9375 33.0326 0.9375 33.2813C0.9375 33.5299 1.03627 33.7684 1.21209 33.9442C1.3879 34.12 1.62636 34.2188 1.875 34.2188C7.74375 34.2188 7.98844 30.4688 13.125 30.4688C18.2897 30.4688 18.4688 34.2188 24.375 34.2188C30.2334 34.2188 30.4884 30.4688 35.625 30.4688C40.7044 30.4688 41.0409 34.2188 46.875 34.2188C47.1236 34.2188 47.3621 34.12 47.5379 33.9442C47.7137 33.7684 47.8125 33.5299 47.8125 33.2813C47.8125 33.0326 47.7137 32.7942 47.5379 32.6184C47.3621 32.4425 47.1236 32.3438 46.875 32.3438ZM15.6694 9.54001L15.0188 5.8472L24.2512 4.21876L24.9075 7.91158L15.6694 9.54001ZM24.3694 32.3438C19.2731 32.3438 19.0444 28.6922 13.3191 28.6022L11.6316 19.0444C11.6013 18.8729 11.6194 18.6964 11.6838 18.5346C11.7482 18.3728 11.8564 18.2322 11.9962 18.1285L17.8003 13.8225C17.9402 13.7188 18.0484 13.5781 18.1128 13.4164C18.1772 13.2546 18.1953 13.0781 18.165 12.9066L17.8416 11.0625L23.3813 10.0856L23.7066 11.9325C23.7368 12.104 23.8142 12.2637 23.9301 12.3937C24.046 12.5237 24.1959 12.6188 24.3628 12.6684L31.2891 14.731C31.4564 14.7799 31.6066 14.8748 31.7226 15.0049C31.8386 15.135 31.9158 15.2951 31.9453 15.4669L34.275 28.6856C29.4694 29.236 29.2191 32.3438 24.3694 32.3438Z" fill="#512000"/>
</svg>
