<svg width="60" height="60" viewBox="0 0 60 60" fill="none" xmlns="http://www.w3.org/2000/svg">
<path d="M43.7428 39.5334C41.17 40.6125 38.4079 41.1682 35.618 41.1682C32.828 41.1682 30.066 40.6125 27.4931 39.5334C22.618 41.5735 17.1534 41.7023 12.1875 39.8944V47.2434C14.5624 48.2105 17.1075 48.6901 19.6715 48.6537C22.2355 48.6173 24.766 48.0656 27.1125 47.0316C27.2958 46.951 27.4999 46.9304 27.6956 46.9725C27.7599 46.987 27.8226 47.0074 27.8831 47.0334C30.3208 48.1114 32.9568 48.6682 35.6222 48.6682C38.2876 48.6682 40.9236 48.1114 43.3612 47.0334C43.4793 46.9817 43.6067 46.9544 43.7356 46.9533C43.8645 46.9522 43.9923 46.9772 44.1112 47.0269C46.4613 48.0645 48.9962 48.6185 51.5648 48.6557C54.1335 48.6929 56.6834 48.2126 59.0625 47.2434V39.8963C54.0929 41.7113 48.621 41.5817 43.7428 39.5334Z" fill="#87B7FF"/>
<path d="M27.1125 37.6566C27.2958 37.576 27.4999 37.5553 27.6956 37.5975C27.7599 37.612 27.8226 37.6324 27.8831 37.6584C30.3209 38.7361 32.9568 39.2928 35.6222 39.2928C38.2875 39.2928 40.9235 38.7361 43.3612 37.6584C43.4793 37.6067 43.6067 37.5794 43.7356 37.5783C43.8645 37.5772 43.9923 37.6022 44.1112 37.6519C46.4613 38.6895 48.9962 39.2435 51.5648 39.2807C54.1335 39.3179 56.6834 38.8376 59.0625 37.8684V29.0625C59.0602 28.8854 59.0082 28.7125 58.9122 28.5637C58.8163 28.4148 58.6804 28.2959 58.5201 28.2207C58.3597 28.1455 58.1814 28.1169 58.0056 28.1383C57.8298 28.1597 57.6636 28.2301 57.5259 28.3416C53.1375 31.8666 48.105 31.8628 43.6969 28.3256C43.5291 28.1952 43.3223 28.1251 43.1098 28.1268C42.8973 28.1285 42.6916 28.2019 42.5259 28.335C38.1384 31.8619 33.1031 31.8638 28.7531 28.3716C28.5876 28.2196 28.3731 28.1322 28.1485 28.1251C27.924 28.1181 27.7044 28.1919 27.5297 28.3331C23.1412 31.86 18.1041 31.8619 13.7128 28.3331C13.5751 28.2223 13.4089 28.1527 13.2333 28.1322C13.0578 28.1118 12.88 28.1414 12.7206 28.2177C12.5611 28.2939 12.4265 28.4137 12.3321 28.5632C12.2378 28.7127 12.1877 28.8858 12.1875 29.0625V37.8684C14.5624 38.8355 17.1075 39.3151 19.6715 39.2787C22.2355 39.2423 24.766 38.6906 27.1125 37.6566Z" fill="#87B7FF"/>
<path d="M43.7428 48.9084C41.17 49.9875 38.4079 50.5432 35.618 50.5432C32.828 50.5432 30.066 49.9875 27.4931 48.9084C22.618 50.9485 17.1534 51.0773 12.1875 49.2694V57.1875C12.1875 57.4361 12.2863 57.6746 12.4621 57.8504C12.6379 58.0262 12.8764 58.125 13.125 58.125H58.125C58.3736 58.125 58.6121 58.0262 58.7879 57.8504C58.9637 57.6746 59.0625 57.4361 59.0625 57.1875V49.2713C54.0929 51.0863 48.621 50.9567 43.7428 48.9084Z" fill="#87B7FF"/>
<path d="M45 30.9853V25.3125C44.9963 22.0813 43.711 18.9835 41.4263 16.6987C39.1415 14.414 36.0437 13.1287 32.8125 13.125H31.875C31.875 12.3791 31.5787 11.6637 31.0512 11.1363C30.5238 10.6088 29.8084 10.3125 29.0625 10.3125H27.1875V7.5H33.75C34.4959 7.5 35.2113 7.20368 35.7387 6.67624C36.2662 6.14879 36.5625 5.43342 36.5625 4.6875C36.5625 3.94158 36.2662 3.22621 35.7387 2.69876C35.2113 2.17132 34.4959 1.875 33.75 1.875H15C14.2541 1.875 13.5387 2.17132 13.0113 2.69876C12.4838 3.22621 12.1875 3.94158 12.1875 4.6875C12.1875 5.43342 12.4838 6.14879 13.0113 6.67624C13.5387 7.20368 14.2541 7.5 15 7.5H21.5625V10.3125H18.75C18.0041 10.3125 17.2887 10.6088 16.7613 11.1363C16.2338 11.6637 15.9375 12.3791 15.9375 13.125H10.3125V4.6875C10.3125 3.94158 10.0162 3.22621 9.48874 2.69876C8.96129 2.17132 8.24592 1.875 7.5 1.875H3.75C3.00408 1.875 2.28871 2.17132 1.76126 2.69876C1.23382 3.22621 0.9375 3.94158 0.9375 4.6875V34.6875C0.9375 35.4334 1.23382 36.1488 1.76126 36.6762C2.28871 37.2037 3.00408 37.5 3.75 37.5H7.5C8.24592 37.5 8.96129 37.2037 9.48874 36.6762C10.0162 36.1488 10.3125 35.4334 10.3125 34.6875V26.25H15.9375C15.9375 26.9959 16.2338 27.7113 16.7613 28.2387C17.2887 28.7662 18.0041 29.0625 18.75 29.0625H29.0625C29.7034 29.0617 30.3249 28.842 30.8239 28.4398C31.3229 28.0376 31.6696 27.4771 31.8066 26.8509C31.8503 26.9578 31.8736 27.072 31.875 27.1875V30.9375H31.4062C30.536 30.9375 29.7014 31.2832 29.0861 31.8986C28.4707 32.5139 28.125 33.3485 28.125 34.2188C28.125 35.089 28.4707 35.9236 29.0861 36.5389C29.7014 37.1543 30.536 37.5 31.4062 37.5H44.5312C45.3599 37.5016 46.1584 37.1889 46.7656 36.625C47.3728 36.061 47.7435 35.2878 47.803 34.4612C47.8625 33.6346 47.6063 32.8163 47.0861 32.1712C46.5659 31.5261 45.8204 31.1023 45 30.9853ZM14.0625 4.6875C14.0625 4.43886 14.1613 4.2004 14.3371 4.02459C14.5129 3.84877 14.7514 3.75 15 3.75H33.75C33.9986 3.75 34.2371 3.84877 34.4129 4.02459C34.5887 4.2004 34.6875 4.43886 34.6875 4.6875C34.6875 4.93614 34.5887 5.1746 34.4129 5.35041C34.2371 5.52623 33.9986 5.625 33.75 5.625H15C14.7514 5.625 14.5129 5.52623 14.3371 5.35041C14.1613 5.1746 14.0625 4.93614 14.0625 4.6875ZM23.4375 7.5H25.3125V10.3125H23.4375V7.5ZM8.4375 34.6875C8.4375 34.9361 8.33873 35.1746 8.16291 35.3504C7.9871 35.5262 7.74864 35.625 7.5 35.625H3.75C3.50136 35.625 3.2629 35.5262 3.08709 35.3504C2.91127 35.1746 2.8125 34.9361 2.8125 34.6875V4.6875C2.8125 4.43886 2.91127 4.2004 3.08709 4.02459C3.2629 3.84877 3.50136 3.75 3.75 3.75H7.5C7.74864 3.75 7.9871 3.84877 8.16291 4.02459C8.33873 4.2004 8.4375 4.43886 8.4375 4.6875V34.6875ZM10.3125 24.375V15H15.9375V24.375H10.3125ZM30 26.25C30 26.4986 29.9012 26.7371 29.7254 26.9129C29.5496 27.0887 29.3111 27.1875 29.0625 27.1875H18.75C18.5014 27.1875 18.2629 27.0887 18.0871 26.9129C17.9113 26.7371 17.8125 26.4986 17.8125 26.25V13.125C17.8125 12.8764 17.9113 12.6379 18.0871 12.4621C18.2629 12.2863 18.5014 12.1875 18.75 12.1875H29.0625C29.3111 12.1875 29.5496 12.2863 29.7254 12.4621C29.9012 12.6379 30 12.8764 30 13.125V26.25ZM31.875 24.5475V15H32.8125C35.5466 15.0032 38.1677 16.0908 40.101 18.024C42.0342 19.9573 43.1218 22.5784 43.125 25.3125V30.9375H33.75V27.1875C33.7476 26.6079 33.5662 26.0432 33.2305 25.5706C32.8949 25.098 32.4215 24.7407 31.875 24.5475ZM44.5312 35.625H31.4062C31.0333 35.625 30.6756 35.4768 30.4119 35.2131C30.1482 34.9494 30 34.5917 30 34.2188C30 33.8458 30.1482 33.4881 30.4119 33.2244C30.6756 32.9607 31.0333 32.8125 31.4062 32.8125H44.5312C44.9042 32.8125 45.2619 32.9607 45.5256 33.2244C45.7893 33.4881 45.9375 33.8458 45.9375 34.2188C45.9375 34.5917 45.7893 34.9494 45.5256 35.2131C45.2619 35.4768 44.9042 35.625 44.5312 35.625Z" fill="#5F55D4"/>
</svg>
