<svg width="512" height="512" viewBox="0 0 512 512" fill="none" xmlns="http://www.w3.org/2000/svg">
<path d="M70.207 134.83H441.793L373.707 501.801H138.293L70.207 134.83Z" fill="#E6E6E6"/>
<path d="M315.426 347.748C315.426 380.568 288.82 407.174 256 407.174C223.18 407.174 196.574 380.568 196.574 347.748C196.574 314.928 256 239.844 256 239.844C256 239.844 315.426 314.928 315.426 347.748Z" fill="#13B7DC"/>
<path d="M449.636 128.31C447.698 125.979 444.824 124.632 441.794 124.632H389.365C384.697 55.125 326.669 0 256 0C185.331 0 127.303 55.125 122.636 124.631H70.2066C67.1756 124.631 64.3026 125.978 62.3646 128.309C60.4276 130.64 59.6266 133.711 60.1786 136.691L128.265 503.661C129.161 508.493 133.378 512 138.293 512H373.707C378.622 512 382.838 508.494 383.735 503.661L451.821 136.691C452.373 133.712 451.573 130.641 449.636 128.31ZM256 20.398C315.416 20.398 364.293 66.383 368.916 124.631H143.084C147.707 66.384 196.583 20.398 256 20.398ZM365.226 491.602H146.774L89.5386 183.112H228.304C233.936 183.112 238.503 178.545 238.503 172.913C238.503 167.281 233.936 162.714 228.304 162.714H85.7536L82.4726 145.031H429.526L365.226 491.602Z" fill="black"/>
<path d="M256 417.373C294.392 417.373 325.625 386.14 325.625 347.748C325.625 312.402 270.307 241.485 263.998 233.514C262.063 231.07 259.118 229.644 256 229.644C252.882 229.644 249.938 231.069 248.002 233.514C241.694 241.484 186.375 312.402 186.375 347.748C186.375 386.14 217.608 417.373 256 417.373ZM256 256.6C277.67 285.658 305.226 328.873 305.226 347.748C305.226 374.891 283.144 396.974 256 396.974C228.856 396.974 206.774 374.892 206.774 347.748C206.773 328.872 234.33 285.657 256 256.6Z" fill="black"/>
<path d="M265.232 183.111H276.771C282.403 183.111 286.97 178.544 286.97 172.912C286.97 167.28 282.403 162.713 276.771 162.713H265.232C259.6 162.713 255.033 167.28 255.033 172.912C255.033 178.544 259.599 183.111 265.232 183.111Z" fill="#FBB03B"/>
</svg>
