<svg width="512" height="512" viewBox="0 0 512 512" fill="none" xmlns="http://www.w3.org/2000/svg">
<path d="M46.9331 320C44.3731 320 42.6661 319.147 40.9601 317.44C37.5471 314.027 37.5471 308.907 40.9601 305.493L258.56 87.893C261.973 84.48 267.093 84.48 270.507 87.893C273.921 91.306 273.92 96.426 270.507 99.84L53.7601 317.44C52.0531 319.147 49.4931 320 46.9331 320Z" fill="#F9BA48"/>
<path d="M494.933 452.267C489.813 452.267 486.4 448.854 486.4 443.734V136.534C486.4 131.414 489.813 128.001 494.933 128.001C500.053 128.001 503.466 131.414 503.466 136.534V443.734C503.467 448.853 500.053 452.267 494.933 452.267Z" fill="#F9BA48"/>
<path d="M443.733 503.467H442.88L84.48 452.267C80.213 451.414 76.8 447.147 77.653 442.88C78.506 438.613 82.773 435.2 87.04 436.053L445.44 487.253C449.707 488.106 453.12 492.373 452.267 496.64C451.413 500.053 448 503.467 443.733 503.467Z" fill="#F9BA48"/>
<path d="M503.467 443.733C503.467 477.013 477.014 503.466 443.734 503.466C410.454 503.466 384 477.013 384 443.733C384 410.453 410.453 384 443.733 384C477.013 384 503.467 410.453 503.467 443.733Z" fill="#F9BA48"/>
<path d="M443.733 384C439.466 384 435.2 384.853 430.933 385.707C457.386 391.68 477.866 415.574 477.866 443.734C477.866 471.894 457.386 495.787 430.933 501.761C435.2 502.614 439.466 503.468 443.733 503.468C477.013 503.468 503.466 477.015 503.466 443.735C503.466 410.455 477.013 384 443.733 384Z" fill="#FD9808"/>
<path d="M93.8672 281.6C46.9342 281.6 8.53418 320 8.53418 366.933C8.53418 413.866 46.9342 452.266 93.8672 452.266C140.8 452.266 179.2 413.866 179.2 366.933C179.2 320 140.8 281.6 93.8672 281.6Z" fill="#F9BA48"/>
<path d="M93.8669 281.6C89.5999 281.6 85.3339 282.453 81.0669 282.453C122.027 288.426 153.6 324.266 153.6 366.933C153.6 409.6 122.027 445.44 81.0669 451.413C85.3339 451.413 89.5999 452.266 93.8669 452.266C140.8 452.266 179.2 413.866 179.2 366.933C179.2 320 140.8 281.6 93.8669 281.6Z" fill="#FD9808"/>
<path d="M93.8669 401.067C75.0939 401.067 59.7339 385.707 59.7339 366.934C59.7339 348.161 75.0929 332.8 93.8669 332.8C112.641 332.8 128 348.16 128 366.933C128 385.706 112.64 401.067 93.8669 401.067Z" fill="#54C9FD"/>
<path d="M93.8669 332.8C89.5999 332.8 85.3339 333.653 81.0669 335.36C93.8669 340.48 102.4 352.427 102.4 366.933C102.4 381.439 93.8669 393.386 81.0669 398.506C85.3339 400.213 89.5999 401.066 93.8669 401.066C112.64 401.066 128 385.706 128 366.933C128 348.16 112.64 332.8 93.8669 332.8Z" fill="#33A9F8"/>
<path d="M503.467 136.533C503.467 207.36 446.294 264.533 375.467 264.533C304.64 264.533 247.467 207.36 247.467 136.533C247.467 65.706 304.64 8.53296 375.467 8.53296C446.294 8.53296 503.467 65.707 503.467 136.533Z" fill="#F9BA48"/>
<path d="M375.467 8.53296C372.907 8.53296 369.494 8.53296 366.934 9.38596C433.493 13.653 486.4 69.12 486.4 136.533C486.4 203.946 433.493 259.413 366.933 263.68C369.493 263.68 372.906 264.533 375.466 264.533C446.293 264.533 503.466 207.36 503.466 136.533C503.466 65.706 446.293 8.53296 375.467 8.53296Z" fill="#FD9808"/>
<path d="M375.467 42.667C323.414 42.667 281.6 84.48 281.6 136.534C281.6 188.588 323.413 230.401 375.467 230.401C427.521 230.401 469.334 188.588 469.334 136.534C469.334 84.48 427.52 42.667 375.467 42.667Z" fill="#54C9FD"/>
<path d="M375.467 42.667C372.907 42.667 369.494 42.667 366.934 43.52C414.721 47.787 452.267 87.893 452.267 136.533C452.267 185.173 414.72 225.28 366.934 229.546C369.494 229.546 372.907 230.399 375.467 230.399C427.52 230.399 469.334 188.586 469.334 136.532C469.334 84.478 427.52 42.667 375.467 42.667Z" fill="#33A9F8"/>
<path d="M375.467 162.133C360.96 162.133 349.867 151.04 349.867 136.533C349.867 122.026 360.96 110.933 375.467 110.933C389.974 110.933 401.067 122.026 401.067 136.533C401.067 151.04 389.973 162.133 375.467 162.133Z" fill="#F9BA48"/>
<path d="M375.467 273.067C300.374 273.067 238.934 211.627 238.934 136.534C238.934 61.441 300.373 0 375.467 0C450.561 0 512 61.44 512 136.533C512 211.626 450.56 273.067 375.467 273.067ZM375.467 17.067C309.76 17.067 256 70.827 256 136.533C256 202.239 309.76 256 375.467 256C441.174 256 494.934 202.24 494.934 136.533C494.934 70.826 441.173 17.067 375.467 17.067Z" fill="black"/>
<path d="M443.733 512C406.186 512 375.466 481.28 375.466 443.733C375.466 406.186 406.186 375.466 443.733 375.466C481.28 375.466 512 406.187 512 443.733C512 481.279 481.28 512 443.733 512ZM443.733 392.533C415.573 392.533 392.533 415.573 392.533 443.733C392.533 471.893 415.573 494.933 443.733 494.933C471.893 494.933 494.933 471.893 494.933 443.733C494.933 415.573 471.893 392.533 443.733 392.533Z" fill="black"/>
<path d="M42.667 307.2C40.107 307.2 38.4 306.347 36.694 304.64C33.281 301.227 33.281 296.107 36.694 292.693L254.294 75.093C257.707 71.68 262.827 71.68 266.241 75.093C269.654 78.506 269.654 83.626 266.241 87.04L48.641 304.64C46.933 306.347 45.227 307.2 42.667 307.2Z" fill="black"/>
<path d="M503.467 452.267C498.347 452.267 494.934 448.854 494.934 443.734V136.534C494.934 131.414 498.347 128.001 503.467 128.001C508.587 128.001 512 131.414 512 136.534V443.734C512 448.853 508.587 452.267 503.467 452.267Z" fill="black"/>
<path d="M443.733 512H442.88L93.0132 460.8C88.7462 459.947 85.3332 455.68 86.1862 451.413C87.0392 447.146 91.3062 443.733 95.5732 444.586L445.44 495.786C449.707 496.639 453.12 500.906 452.267 505.173C451.413 508.587 448 512 443.733 512Z" fill="black"/>
<path d="M443.733 452.267C438.613 452.267 435.2 448.854 435.2 443.734C435.2 438.614 438.613 435.201 443.733 435.201C448.853 435.201 452.266 438.614 452.266 443.734C452.267 448.853 448.853 452.267 443.733 452.267Z" fill="black"/>
<path d="M375.467 85.3331C370.347 85.3331 366.934 81.9201 366.934 76.8001C366.934 71.6801 370.347 68.2671 375.467 68.2671C380.587 68.2671 384 71.6801 384 76.8001C384 81.9201 380.587 85.3331 375.467 85.3331Z" fill="black"/>
<path d="M375.467 204.8C370.347 204.8 366.934 201.387 366.934 196.267C366.934 191.147 370.347 187.734 375.467 187.734C380.587 187.734 384 191.147 384 196.267C384 201.387 380.587 204.8 375.467 204.8Z" fill="black"/>
<path d="M93.867 460.8C41.813 460.8 0 418.987 0 366.933C0 314.879 41.813 273.066 93.867 273.066C145.921 273.066 187.734 314.879 187.734 366.933C187.734 418.987 145.92 460.8 93.867 460.8ZM93.867 290.133C51.2 290.133 17.067 324.266 17.067 366.933C17.067 409.6 51.2 443.733 93.867 443.733C136.534 443.733 170.667 409.6 170.667 366.933C170.667 324.266 136.533 290.133 93.867 290.133Z" fill="black"/>
<path d="M426.667 136.533C426.667 131.413 430.08 128 435.2 128C440.32 128 443.733 131.413 443.733 136.533C443.733 141.653 440.32 145.066 435.2 145.066C430.08 145.067 426.667 141.653 426.667 136.533Z" fill="black"/>
<path d="M307.2 136.533C307.2 131.413 310.613 128 315.733 128C320.853 128 324.266 131.413 324.266 136.533C324.266 141.653 320.853 145.066 315.733 145.066C310.613 145.067 307.2 141.653 307.2 136.533Z" fill="black"/>
<path d="M341.333 93.867C341.333 98.987 337.92 102.4 332.8 102.4C327.68 102.4 324.267 98.987 324.267 93.867C324.267 88.747 327.68 85.334 332.8 85.334C337.92 85.334 341.333 88.747 341.333 93.867Z" fill="black"/>
<path d="M426.667 179.2C426.667 184.32 423.254 187.733 418.134 187.733C413.014 187.733 409.601 184.32 409.601 179.2C409.601 174.08 413.014 170.667 418.134 170.667C423.254 170.667 426.667 174.08 426.667 179.2Z" fill="black"/>
<path d="M409.6 93.867C409.6 88.747 413.013 85.334 418.133 85.334C423.253 85.334 426.666 88.747 426.666 93.867C426.666 98.987 423.253 102.4 418.133 102.4C413.013 102.4 409.6 98.987 409.6 93.867Z" fill="black"/>
<path d="M332.8 187.733C327.68 187.733 324.267 184.32 324.267 179.2C324.267 174.08 327.68 170.667 332.8 170.667C337.92 170.667 341.333 174.08 341.333 179.2C341.333 184.32 337.92 187.733 332.8 187.733Z" fill="black"/>
<path d="M375.467 238.933C319.147 238.933 273.067 192.853 273.067 136.533C273.067 80.2131 319.147 34.1331 375.467 34.1331C431.787 34.1331 477.867 80.2131 477.867 136.533C477.867 192.853 431.787 238.933 375.467 238.933ZM375.467 51.2001C328.534 51.2001 290.134 89.6001 290.134 136.533C290.134 183.466 328.534 221.866 375.467 221.866C422.4 221.866 460.8 183.466 460.8 136.533C460.8 89.6001 422.4 51.2001 375.467 51.2001Z" fill="black"/>
<path d="M375.467 170.667C356.694 170.667 341.334 155.307 341.334 136.534C341.334 117.761 356.694 102.401 375.467 102.401C394.24 102.401 409.6 117.761 409.6 136.534C409.6 155.307 394.24 170.667 375.467 170.667ZM375.467 119.467C366.08 119.467 358.4 127.147 358.4 136.534C358.4 145.921 366.08 153.601 375.467 153.601C384.854 153.601 392.534 145.921 392.534 136.534C392.534 127.147 384.853 119.467 375.467 119.467Z" fill="black"/>
<path d="M93.8672 409.6C69.9742 409.6 51.2002 390.827 51.2002 366.933C51.2002 343.04 69.9732 324.266 93.8672 324.266C117.761 324.266 136.534 343.039 136.534 366.933C136.533 390.827 117.76 409.6 93.8672 409.6ZM93.8672 341.333C79.3602 341.333 68.2672 352.426 68.2672 366.933C68.2672 381.44 79.3602 392.533 93.8672 392.533C108.374 392.533 119.467 381.44 119.467 366.933C119.467 352.426 108.373 341.333 93.8672 341.333Z" fill="black"/>
</svg>
