<svg width="512" height="512" viewBox="0 0 512 512" fill="none" xmlns="http://www.w3.org/2000/svg">
<g clip-path="url(#clip0_145_1259)">
<path d="M351.104 221.877V142.383H314.392C311.617 133.03 307.897 124.085 303.326 115.666L329.285 89.707L273.074 33.497L247.115 59.456C238.697 54.885 229.75 51.165 220.398 48.39V11.678H140.904V48.39C131.551 51.165 122.606 54.886 114.187 59.456L88.2292 33.497L32.0182 89.708L57.9772 115.667C53.4062 124.085 49.6862 133.032 46.9112 142.384H10.1992V221.878H46.9112C49.6862 231.231 53.4062 240.176 57.9772 248.595L32.0182 274.554L88.2292 330.764L114.188 304.805C122.606 309.376 131.553 313.096 140.905 315.871V352.583H220.399V315.87C229.752 313.095 238.697 309.374 247.116 304.804L273.075 330.763L329.286 274.553L303.327 248.594C307.898 240.176 311.618 231.229 314.393 221.877H351.104V221.877ZM180.651 245.954C145.402 245.954 116.826 217.379 116.826 182.129C116.826 146.879 145.401 118.304 180.651 118.304C215.901 118.304 244.476 146.879 244.476 182.129C244.476 217.379 215.901 245.954 180.651 245.954Z" fill="#F9BA48"/>
<path d="M484.685 457.985L501.801 415.119L482.004 407.215C482.521 401.574 482.442 395.949 481.789 390.425L501.377 382.016L483.169 339.603L463.581 348.012C460.026 343.734 456.002 339.803 451.557 336.292L459.461 316.495L416.595 299.379L408.691 319.176C403.05 318.659 397.425 318.738 391.901 319.391L383.492 299.803L341.079 318.011L349.488 337.599C345.21 341.154 341.279 345.178 337.768 349.623L317.971 341.719L300.855 384.585L320.652 392.489C320.135 398.13 320.214 403.755 320.867 409.279L301.279 417.688L319.487 460.101L339.075 451.692C342.63 455.97 346.654 459.901 351.099 463.412L343.195 483.209L386.061 500.325L393.965 480.528C399.606 481.045 405.231 480.966 410.755 480.313L419.164 499.901L461.577 481.693L453.168 462.105C457.446 458.55 461.377 454.526 464.888 450.081L484.685 457.985ZM387.586 434.267C368.578 426.678 359.322 405.116 366.911 386.108C374.5 367.1 396.062 357.844 415.07 365.433C434.078 373.022 443.334 394.584 435.745 413.592C428.155 432.6 406.593 441.857 387.586 434.267Z" fill="#F9BA48"/>
<path d="M339.485 274.553C339.485 271.848 338.41 269.253 336.498 267.341L315.777 246.62C318.035 241.89 320.048 237.031 321.8 232.076H351.106C356.739 232.076 361.305 227.51 361.305 221.877V142.383C361.305 136.75 356.739 132.184 351.106 132.184H321.8C320.048 127.23 318.035 122.37 315.777 117.64L336.499 96.919C340.482 92.936 340.482 86.478 336.499 82.494L280.288 26.284C276.305 22.302 269.847 22.302 265.864 26.284L245.142 47.005C240.411 44.747 235.553 42.735 230.598 40.982V11.678C230.598 6.045 226.032 1.479 220.399 1.479H140.905C135.272 1.479 130.706 6.045 130.706 11.678V40.983C125.753 42.734 120.893 44.747 116.162 47.006L95.44 26.285C91.457 22.302 84.999 22.302 81.016 26.285L24.806 82.495C20.823 86.478 20.823 92.936 24.806 96.92L45.527 117.641C43.269 122.371 41.256 127.231 39.504 132.185H10.199C4.566 132.184 0 136.751 0 142.384V221.878C0 227.511 4.566 232.077 10.199 232.077H39.504C41.256 237.031 43.268 241.891 45.527 246.621L24.806 267.342C22.894 269.254 21.819 271.849 21.819 274.554C21.819 277.259 22.894 279.853 24.806 281.766L81.016 337.977C82.928 339.889 85.523 340.964 88.228 340.964C90.933 340.964 93.527 339.889 95.44 337.977L116.161 317.255C120.892 319.513 125.751 321.526 130.705 323.278V352.583C130.705 358.216 135.271 362.782 140.904 362.782H220.398C226.031 362.782 230.597 358.216 230.597 352.583V323.278C235.551 321.526 240.41 319.514 245.141 317.255L265.862 337.977C267.774 339.889 270.369 340.964 273.074 340.964C275.779 340.964 278.374 339.889 280.286 337.977L336.496 281.766C338.41 279.852 339.485 277.258 339.485 274.553ZM273.074 316.34L254.327 297.593C251.133 294.4 246.218 293.686 242.248 295.842C234.414 300.095 226.086 303.544 217.496 306.093C213.167 307.378 210.198 311.356 210.198 315.871V342.384H151.103V315.871C151.103 311.356 148.134 307.378 143.805 306.093C135.215 303.544 126.888 300.095 119.053 295.842C115.083 293.687 110.171 294.399 106.974 297.593L88.227 316.34L46.441 274.553L65.188 255.807C68.382 252.613 69.095 247.698 66.939 243.728C62.686 235.894 59.237 227.566 56.688 218.977C55.404 214.648 51.425 211.679 46.91 211.679H20.398V152.584H46.911C51.426 152.584 55.405 149.615 56.689 145.285C59.238 136.695 62.687 128.368 66.94 120.534C69.095 116.564 68.383 111.649 65.189 108.455L46.442 89.708L88.228 47.922L106.975 66.669C110.169 69.862 115.084 70.576 119.053 68.42C126.888 64.167 135.216 60.718 143.805 58.169C148.134 56.884 151.103 52.906 151.103 48.391V21.877H210.198V48.39C210.198 52.905 213.167 56.883 217.496 58.168C226.087 60.718 234.414 64.166 242.248 68.419C246.22 70.575 251.133 69.862 254.326 66.668L273.073 47.921L314.859 89.707L296.112 108.454C292.918 111.648 292.206 116.563 294.361 120.533C298.613 128.365 302.062 136.692 304.612 145.284C305.897 149.613 309.875 152.582 314.39 152.582H340.903V211.677H314.39C309.875 211.677 305.897 214.646 304.612 218.975C302.062 227.567 298.613 235.895 294.361 243.727C292.206 247.698 292.918 252.612 296.112 255.806L314.859 274.552L273.074 316.34Z" fill="black"/>
<path d="M254.675 182.13C254.675 141.313 221.468 108.106 180.651 108.106C139.835 108.106 106.628 141.313 106.628 182.13C106.628 222.947 139.835 256.154 180.651 256.154C221.469 256.154 254.675 222.947 254.675 182.13ZM127.027 182.13C127.027 152.561 151.083 128.505 180.651 128.505C210.219 128.505 234.276 152.561 234.276 182.13C234.276 211.699 210.22 235.755 180.651 235.755C151.082 235.755 127.027 211.698 127.027 182.13Z" fill="black"/>
<path d="M271.987 203.528C266.672 201.653 260.849 204.442 258.976 209.754C247.289 242.893 215.812 265.158 180.651 265.158C175.018 265.158 170.452 269.724 170.452 275.357C170.452 280.99 175.018 285.556 180.651 285.556C224.446 285.556 263.653 257.82 278.212 216.539C280.086 211.227 277.299 205.401 271.987 203.528Z" fill="black"/>
<path d="M273.878 171.931C268.245 171.931 263.679 176.497 263.679 182.13C263.679 183.45 263.648 184.781 263.587 186.083C263.324 191.71 267.672 196.485 273.298 196.748C273.461 196.755 273.622 196.759 273.784 196.759C279.198 196.759 283.708 192.501 283.964 187.037C284.039 185.417 284.078 183.766 284.078 182.129C284.077 176.497 279.511 171.931 273.878 171.931Z" fill="black"/>
<path d="M418.852 355.962C394.65 346.298 367.102 358.127 357.44 382.327C347.777 406.528 359.604 434.077 383.804 443.739C389.534 446.027 395.447 447.11 401.27 447.11C420.043 447.11 437.841 435.846 445.216 417.375C454.879 393.175 443.052 365.625 418.852 355.962ZM426.273 409.811C423.613 416.474 418.516 421.702 411.925 424.533C405.333 427.363 398.033 427.457 391.369 424.796C377.614 419.304 370.892 403.646 376.384 389.891C381.876 376.136 397.536 369.415 411.289 374.906C425.043 380.398 431.765 396.056 426.273 409.811Z" fill="black"/>
<path d="M511.173 411.095C510.106 408.609 508.095 406.649 505.583 405.647L492.538 400.439C492.546 399.268 492.531 398.098 492.494 396.929L505.4 391.388C507.886 390.321 509.846 388.31 510.848 385.798C511.851 383.286 511.815 380.478 510.748 377.993L492.539 335.58C490.318 330.405 484.319 328.008 479.143 330.232L466.237 335.773C465.415 334.941 464.578 334.124 463.723 333.323L468.932 320.278C471.021 315.047 468.473 309.113 463.242 307.024L420.376 289.908C415.147 287.821 409.211 290.367 407.122 295.598L401.913 308.643C400.746 308.634 399.573 308.65 398.403 308.687L392.863 295.779C391.796 293.293 389.785 291.333 387.273 290.331C384.762 289.328 381.953 289.363 379.468 290.431L337.055 308.64C331.879 310.862 329.484 316.86 331.707 322.036L337.248 334.942C336.416 335.764 335.599 336.602 334.798 337.456L321.754 332.247C319.242 331.244 316.434 331.279 313.949 332.347C311.463 333.414 309.503 335.425 308.501 337.936L291.384 380.8C289.295 386.031 291.843 391.965 297.074 394.054L310.119 399.263C310.111 400.433 310.126 401.604 310.163 402.773L297.257 408.314C294.771 409.381 292.811 411.392 291.809 413.904C290.806 416.416 290.842 419.224 291.909 421.709L310.118 464.122C311.185 466.608 313.196 468.568 315.708 469.57C318.219 470.573 321.028 470.538 323.513 469.47L336.419 463.929C337.241 464.761 338.078 465.578 338.933 466.379L333.724 479.424C331.635 484.655 334.183 490.589 339.414 492.678L382.28 509.794C383.495 510.279 384.779 510.521 386.062 510.521C387.432 510.521 388.803 510.245 390.086 509.694C392.572 508.627 394.532 506.616 395.534 504.104L400.742 491.06C401.911 491.065 403.084 491.053 404.252 491.015L409.793 503.921C412.014 509.097 418.01 511.491 423.189 509.269L465.602 491.06C468.088 489.993 470.048 487.982 471.05 485.47C472.053 482.958 472.017 480.15 470.95 477.665L465.409 464.759C466.241 463.937 467.058 463.1 467.859 462.245L480.904 467.454C486.133 469.541 492.069 466.995 494.158 461.764L511.274 418.898C512.276 416.388 512.24 413.58 511.173 411.095ZM478.995 444.73L468.67 440.608C464.476 438.933 459.681 440.215 456.884 443.76C453.845 447.609 450.4 451.143 446.648 454.262C443.174 457.149 442.014 461.978 443.796 466.129L448.182 476.345L424.512 486.506L420.126 476.29C418.344 472.14 414.047 469.657 409.559 470.185C404.714 470.757 399.78 470.82 394.896 470.372C390.399 469.962 386.167 472.554 384.493 476.747L380.37 487.072L356.448 477.52L360.57 467.195C362.245 463.002 360.963 458.206 357.418 455.409C353.569 452.37 350.035 448.925 346.916 445.173C344.029 441.699 339.2 440.538 335.049 442.321L324.833 446.707L314.672 423.037L324.888 418.651C329.039 416.869 331.524 412.569 330.993 408.083C330.421 403.239 330.358 398.306 330.805 393.421C331.217 388.925 328.623 384.693 324.431 383.018L314.106 378.895L323.658 354.973L333.983 359.096C338.177 360.77 342.972 359.488 345.77 355.944C348.81 352.094 352.254 348.56 356.005 345.443C359.479 342.556 360.64 337.727 358.858 333.576L354.472 323.36L378.142 313.199L382.528 323.415C384.31 327.565 388.606 330.048 393.095 329.52C397.942 328.948 402.876 328.886 407.757 329.332C412.256 329.743 416.486 327.151 418.161 322.957L422.284 312.631L446.206 322.183L442.083 332.509C440.408 336.702 441.691 341.498 445.235 344.295C449.085 347.335 452.618 350.779 455.736 354.53C458.624 358.004 463.452 359.165 467.603 357.383L477.819 352.997L487.98 376.667L477.764 381.053C473.613 382.835 471.129 387.135 471.659 391.621C472.231 396.466 472.294 401.398 471.847 406.282C471.434 410.779 474.028 415.011 478.222 416.686L488.547 420.809L478.995 444.73Z" fill="black"/>
</g>
<defs>
<clipPath id="clip0_145_1259">
<rect width="512" height="512" fill="white"/>
</clipPath>
</defs>
</svg>
