<svg width="512" height="512" viewBox="0 0 512 512" fill="none" xmlns="http://www.w3.org/2000/svg">
<path d="M132.128 132.129V445.934H140.387C154.046 445.934 165.162 457.049 165.162 470.709V478.968H322.066V470.709C322.066 457.05 333.181 445.934 346.841 445.934H355.1V132.129H132.128ZM243.611 280.773C204.848 280.773 173.418 249.343 173.418 210.58C173.418 171.817 204.848 140.386 243.611 140.386C282.374 140.386 313.805 171.817 313.805 210.58C313.805 249.343 282.376 280.773 243.611 280.773Z" fill="#F9BA48"/>
<path d="M470.709 0H41.2911C18.5227 0 0 18.5227 0 41.2911V272.516C0 295.283 18.5227 313.807 41.2911 313.807H99.0964V512H388.129V313.807H470.709C493.476 313.807 512 295.284 512 272.516V41.2911C511.998 18.5227 493.476 0 470.709 0ZM16.5161 272.516V41.2911C16.5161 27.6325 27.6307 16.5161 41.2911 16.5161H66.0643V297.289H41.2911C27.6307 297.289 16.5161 286.175 16.5161 272.516ZM371.613 495.482H115.613V148.645H195.642C177.135 163.006 165.161 185.401 165.161 210.579C165.161 253.835 200.356 289.03 243.612 289.03C286.867 289.03 322.063 253.835 322.063 210.579C322.063 185.401 310.088 163.004 291.581 148.645H371.611L371.613 495.482ZM305.548 210.581C305.548 244.736 277.768 272.516 243.613 272.516C209.457 272.516 181.679 244.736 181.679 210.581C181.679 176.427 209.459 148.646 243.613 148.646C277.768 148.646 305.548 176.425 305.548 210.581ZM99.0964 132.129V297.289H82.5804V16.5161H404.645V297.289H388.129V132.129H99.0964ZM495.482 272.516C495.482 286.175 484.368 297.291 470.707 297.291H421.159V16.5161H470.707C484.366 16.5161 495.482 27.6307 495.482 41.2911V272.516Z" fill="black"/>
<path d="M49.5483 99.0964H33.0322V165.161H49.5483V99.0964Z" fill="black"/>
<path d="M49.5483 198.193H33.0322V214.709H49.5483V198.193Z" fill="black"/>
<path d="M458.322 128.001C442.384 128.001 429.419 140.965 429.419 156.904C429.419 172.842 442.384 185.806 458.322 185.806C474.26 185.806 487.225 172.842 487.225 156.904C487.225 140.965 474.26 128.001 458.322 128.001ZM458.322 169.29C451.492 169.29 445.935 163.732 445.935 156.904C445.935 150.074 451.494 144.517 458.322 144.517C465.152 144.517 470.709 150.075 470.709 156.904C470.709 163.732 465.151 169.29 458.322 169.29Z" fill="black"/>
</svg>
