<svg width="512" height="512" viewBox="0 0 512 512" fill="none" xmlns="http://www.w3.org/2000/svg">
<g clip-path="url(#clip0_145_1307)">
<path d="M410.1 214.706V24.001C410.1 13.7279 401.74 5.37378 391.469 5.37378C381.206 5.37378 372.848 13.7279 372.848 24.001V67.7655H151.642V24.001C151.642 13.7279 143.288 5.37378 133.015 5.37378C122.748 5.37378 114.404 13.7279 114.404 24.001V247.789L150.993 226.598C151.209 226.471 151.426 226.361 151.642 226.234V203.034H372.848V215.241C385.179 212.92 397.681 212.718 410.1 214.706ZM151.642 165.794V104.993H372.848V165.794H151.642Z" fill="black"/>
<path d="M9.60101 363.415L78.3072 401.484C97.2737 412 127.377 411.703 146.077 400.838L186.412 377.47C192.431 373.982 200.737 373.622 204.04 373.622C207.418 373.622 213.849 373.982 218.879 376.486L272.203 402.961C291.7 412.652 321.485 411.301 339.904 399.96L375.816 377.851C381.714 374.194 389.956 373.793 393.221 373.793C397.099 373.793 402.691 374.269 407.257 376.563L485.029 415.603C494.129 420.157 505.553 416.227 510.025 407.317C514.623 398.133 510.914 386.921 501.74 382.311L423.988 343.292C404.489 333.485 374.717 334.773 356.264 346.145L320.375 368.254C314.415 371.942 306.086 372.346 302.789 372.346C298.922 372.346 293.363 371.88 288.794 369.628L235.435 343.144C216.238 333.61 186.166 334.561 167.732 345.269L127.398 368.637C122.086 371.703 115.16 372.165 111.503 372.165C108.036 372.165 101.447 371.743 96.3475 368.912L27.6413 330.854C18.8959 325.982 7.14305 329.449 2.32496 338.114C-2.64298 347.096 0.616253 358.45 9.60101 363.415Z" fill="black"/>
<path d="M9.60077 452.53L78.307 490.599C97.2568 501.105 127.377 500.818 146.089 489.964L186.413 466.587C192.443 463.109 200.755 462.729 204.042 462.729C207.419 462.729 213.84 463.099 218.87 465.592L272.205 492.078C291.691 501.779 321.486 500.428 339.906 489.077L375.818 466.968C381.716 463.311 389.958 462.91 393.213 462.91C397.1 462.91 402.682 463.376 407.246 465.669L485.031 504.72C494.11 509.265 505.554 505.365 510.027 496.424C514.624 487.239 510.916 476.036 501.741 471.428L423.99 432.399C404.514 422.623 374.719 423.88 356.266 435.264L320.377 457.374C314.394 461.051 306.077 461.453 302.77 461.453C298.911 461.453 293.342 460.987 288.796 458.724L235.448 432.238C216.25 422.706 186.189 423.657 167.747 434.374L127.412 457.729C122.113 460.808 115.174 461.27 111.518 461.27C108.05 461.27 101.461 460.847 96.3681 458.025L27.6577 419.957C18.8915 415.095 7.13865 418.562 2.33929 427.229C-2.64322 436.213 0.616014 447.563 9.60077 452.53Z" fill="#F9BA48"/>
<path d="M9.91297 274.388L78.6234 312.433C97.3983 322.843 127.202 322.556 145.764 311.798L186.074 288.43C192.226 284.879 200.707 284.499 204.062 284.499C207.503 284.499 214.054 284.879 219.181 287.425L272.498 313.9C291.806 323.485 321.303 322.155 339.566 310.928L375.457 288.798C381.514 285.079 389.916 284.678 393.244 284.678C397.219 284.678 402.913 285.162 407.565 287.51L485.329 326.529C494.226 330.998 505.367 327.035 509.721 318.115C514.223 308.889 510.514 297.667 501.446 293.121L423.672 254.085C421.409 252.949 418.787 251.898 415.682 250.882C400.811 246.031 382.942 246.306 367.488 251.885C362.955 253.534 359.498 255.124 356.614 256.912L320.712 279.044C314.614 282.784 306.116 283.185 302.745 283.185C298.772 283.185 293.096 282.709 288.467 280.405L235.144 253.931C216.132 244.482 186.349 245.429 168.061 256.046L125.776 280.342C121.707 282.097 116.708 283.004 111.482 283.004C107.932 283.004 101.209 282.582 96.0143 279.687L27.3143 241.65C18.7125 236.867 7.27187 240.393 2.62027 249.053C-2.24153 258.112 1.0302 269.462 9.91297 274.388Z" fill="#F9BA48"/>
</g>
<defs>
<clipPath id="clip0_145_1307">
<rect width="512" height="512" fill="white"/>
</clipPath>
</defs>
</svg>
