<svg width="512" height="512" viewBox="0 0 512 512" fill="none" xmlns="http://www.w3.org/2000/svg">
<path d="M128.924 460.8V462.507L111.857 503.467H77.7241C77.7241 503.467 76.8711 487.254 76.8711 460.8H128.924V460.8Z" fill="#FDCC00"/>
<path d="M143.432 93.8669C134.899 102.4 128.925 110.934 128.925 110.934C65.7775 209.067 77.7245 503.467 77.7245 503.467H111.858L136.605 443.734C128.072 203.947 143.432 94.7199 143.432 93.8669Z" fill="#F9BA48"/>
<path d="M79.4316 349.867H134.899C134.899 321.707 134.899 296.107 134.899 273.067H85.4046C82.8446 298.667 80.2846 325.12 79.4316 349.867Z" fill="#63D3FD"/>
<path d="M368.711 93.8669C377.244 102.4 383.218 110.934 383.218 110.934C440.391 209.067 434.418 503.467 434.418 503.467H400.285L375.538 443.734C384.071 203.947 369.564 94.7199 368.711 93.8669Z" fill="#F9BA48"/>
<path d="M376.391 435.2C384.071 196.267 369.564 94.72 369.564 93.867C360.177 84.48 349.084 75.094 341.404 76.8C341.404 76.8 350.791 8.53296 256.071 8.53296C161.351 8.53296 170.738 76.8 170.738 76.8C163.058 75.093 152.818 84.48 143.431 93.867C143.431 94.72 128.071 195.414 136.604 435.2C152.817 456.533 178.417 469.333 204.871 469.333H308.124C334.578 469.333 360.178 456.533 376.391 435.2Z" fill="#F9BA48"/>
<path d="M308.125 469.333H204.872C186.099 469.333 168.179 463.36 153.672 452.266V494.933C153.672 500.053 157.085 503.466 162.205 503.466H349.938C355.058 503.466 358.471 500.053 358.471 494.933V453.12C343.965 463.36 326.045 469.333 308.125 469.333Z" fill="#FDCC00"/>
<path d="M384.072 460.8V462.507L401.139 503.467H435.272C435.272 503.467 435.272 487.254 435.272 460.8H384.072V460.8Z" fill="#FDCC00"/>
<path d="M136.605 435.2C150.258 453.973 171.592 465.92 194.632 468.48C206.579 422.4 213.405 366.933 213.405 307.2C213.405 214.187 196.338 131.413 169.885 76.8001C163.912 75.9471 155.378 82.7731 146.845 90.4531C145.992 92.1601 144.285 93.0131 143.432 93.8661C143.432 93.8661 134.045 160.426 134.045 302.933C134.045 341.333 134.899 385.707 136.605 435.2Z" fill="#F9BA48"/>
<path d="M342.259 76.8001C315.806 131.413 298.739 214.187 298.739 307.2C298.739 366.933 305.566 422.4 317.512 468.48C340.552 465.92 361.885 453.973 376.392 435.2C378.099 385.707 378.952 341.333 378.952 303.787C378.952 161.28 369.565 94.7201 369.565 94.7201C368.712 93.8671 367.005 92.1601 366.152 91.3071C357.619 82.7731 348.232 75.9471 342.259 76.8001Z" fill="#F9BA48"/>
<path d="M378.099 349.867H431.006C429.299 325.12 427.593 298.667 424.179 273.067H378.099C378.952 296.107 378.952 321.707 378.099 349.867Z" fill="#63D3FD"/>
<path d="M384.071 110.933C384.071 110.933 377.244 102.4 369.564 93.866C369.564 93.866 370.417 102.399 372.124 120.319C423.324 226.986 418.204 503.466 418.204 503.466H435.271C435.271 503.467 441.244 209.067 384.071 110.933Z" fill="#FFA800"/>
<path d="M425.032 273.067H407.965C410.525 298.667 413.085 325.12 414.792 349.867H431.859C430.152 325.12 427.592 298.667 425.032 273.067Z" fill="#3DB9F9"/>
<path d="M128.072 110.933C128.072 110.933 134.899 102.4 142.579 93.866C142.579 93.866 141.726 102.399 140.019 120.319C88.8188 226.986 93.9388 503.466 93.9388 503.466H76.8718C76.8718 503.467 70.8988 209.067 128.072 110.933Z" fill="white"/>
<path d="M213.405 307.2C213.405 295.253 213.405 284.16 212.552 273.067H134.045C134.045 296.107 134.045 321.707 134.045 349.867H211.698C212.552 336.213 213.405 321.707 213.405 307.2Z" fill="#63D3FD"/>
<path d="M298.739 307.2C298.739 321.707 299.592 336.213 299.592 349.867H378.099C378.099 321.707 378.099 296.107 378.099 273.067H298.739C298.739 284.16 298.739 295.253 298.739 307.2Z" fill="#63D3FD"/>
<path d="M111.859 512H77.7245C73.4575 512 69.1916 508.587 69.1916 503.467C68.3386 491.52 58.0986 205.654 121.245 106.667C122.098 105.814 128.925 97.2799 137.458 88.7469C140.018 85.3339 144.285 84.4799 147.698 86.1869C151.111 87.8939 152.818 91.3069 151.965 95.5739C151.965 96.4269 136.605 204.801 145.138 443.734C145.138 444.587 145.138 446.294 144.285 447.147L119.538 506.88C117.832 510.293 115.272 512 111.859 512ZM85.4046 494.933H105.885L128.072 442.026C122.099 273.066 128.072 168.959 132.339 122.026C81.1386 211.627 84.5516 448 85.4046 494.933Z" fill="black"/>
<path d="M435.272 512H401.139C397.726 512 394.312 510.293 393.459 506.88L368.712 447.147C367.859 446.294 367.859 444.587 367.859 443.734C375.539 203.947 361.032 96.427 361.032 95.574C360.179 92.161 362.739 88.747 365.299 87.041C368.712 84.481 372.979 85.334 375.539 87.894C384.072 96.427 390.898 104.961 390.898 105.814L391.752 106.667C448.925 205.654 443.805 491.52 443.805 503.467C443.805 508.587 439.539 512 435.272 512ZM406.259 494.933H426.739C426.739 448 426.739 215.04 380.659 122.88C384.926 170.667 390.046 274.773 384.926 442.027L406.259 494.933Z" fill="black"/>
<path d="M308.125 477.867H204.872C175.859 477.867 147.699 464.214 129.779 440.32C128.926 438.613 128.072 436.907 128.072 435.2C119.539 193.707 134.899 93.867 134.899 93.013C134.899 91.306 135.752 89.6 137.459 88.746C145.139 80.213 153.672 72.533 162.206 69.119C162.206 59.732 164.766 42.666 177.566 27.306C193.779 9.387 220.232 0 256.072 0C291.912 0 318.365 9.387 334.579 27.307C346.526 42.667 349.939 59.734 349.939 69.12C356.766 71.68 365.299 77.653 375.539 87.893C376.392 88.746 377.246 90.453 378.099 92.16C378.099 93.013 393.459 193.707 384.926 435.2C384.926 436.907 384.073 438.613 383.219 440.32C365.299 464.213 337.139 477.867 308.125 477.867ZM145.139 431.787C159.646 449.707 181.832 460.8 204.872 460.8H308.125C331.165 460.8 353.352 449.707 367.858 431.787C374.685 218.454 363.591 115.2 361.031 97.28C348.231 85.333 343.111 85.333 343.111 85.333C340.551 86.186 337.991 85.333 335.431 83.626C333.724 81.919 332.018 78.506 332.871 75.946C332.871 75.946 335.431 55.466 320.924 39.253C308.124 24.746 286.791 17.066 256.071 17.066C225.351 17.066 203.164 24.746 191.218 38.399C176.711 54.612 179.271 75.092 179.271 75.946C179.271 78.506 178.418 81.919 176.711 83.626C174.151 85.333 171.591 85.333 169.031 85.333C168.178 85.333 163.911 86.186 151.964 98.133C149.405 115.2 137.459 217.6 145.139 431.787Z" fill="black"/>
<path d="M349.939 512H162.205C152.818 512 145.138 504.32 145.138 494.933V452.266C145.138 448.853 146.845 446.293 150.258 444.586C152.818 442.879 156.231 443.733 158.791 445.439C172.444 455.679 187.804 460.799 204.871 460.799H308.124C324.337 460.799 339.697 455.679 353.351 445.439C355.911 443.732 359.324 442.879 361.884 444.586C364.444 446.293 366.151 448.853 366.151 452.266V494.933C367.005 504.32 359.325 512 349.939 512ZM162.205 467.627V494.934H349.938V467.627C337.138 474.454 322.631 477.867 308.125 477.867H204.872C190.365 477.867 175.005 474.453 162.205 467.627Z" fill="black"/>
<path d="M435.271 512H401.138C397.725 512 394.311 510.293 393.458 506.88L376.391 465.92C375.538 464.213 375.538 463.36 375.538 462.507V460.8C375.538 455.68 378.951 452.267 384.071 452.267H435.271C440.391 452.267 443.804 455.68 443.804 460.8C443.804 487.253 443.804 503.467 443.804 503.467C443.804 508.587 439.538 512 435.271 512ZM406.258 494.933H426.738C426.738 488.96 426.738 480.426 426.738 469.333H396.018L406.258 494.933Z" fill="black"/>
<path d="M111.859 512H77.7249C73.4579 512 69.1919 508.587 69.1919 503.467C69.1919 503.467 68.3389 486.4 68.3389 460.8C68.3389 458.24 69.1919 456.533 70.8989 454.827C72.6059 453.121 74.3119 452.267 76.8719 452.267H128.925C134.045 452.267 137.458 455.68 137.458 460.8V462.507C137.458 463.36 137.458 465.067 136.605 465.92L119.538 506.88C117.832 510.293 115.272 512 111.859 512ZM85.4049 494.933H105.885L116.125 469.333H85.4049C85.4049 480.427 85.4049 488.96 85.4049 494.933Z" fill="black"/>
<path d="M431.004 358.4H378.097C375.537 358.4 373.83 357.547 372.124 355.84C370.418 354.133 369.564 352.427 369.564 349.867C369.564 323.414 369.564 297.814 369.564 273.067C369.564 270.507 370.417 268.8 372.124 267.094C373.831 265.387 375.537 264.534 378.097 264.534H424.177C428.444 264.534 431.857 267.947 432.71 272.214C435.27 296.107 437.83 321.707 439.537 349.867C439.537 352.427 438.684 354.134 436.977 355.84C436.124 357.547 433.564 358.4 431.004 358.4ZM386.631 341.333H421.618C419.911 320 418.205 300.373 416.498 281.6H386.631C387.484 300.373 387.484 320.853 386.631 341.333Z" fill="black"/>
<path d="M134.044 358.4H79.4314C76.8714 358.4 75.1644 357.547 73.4584 355.84C71.7514 354.133 70.8984 351.573 70.8984 349.867C72.6054 322.56 74.3114 296.107 76.8714 272.214C77.7244 267.947 81.1384 264.534 85.4044 264.534H134.044C136.604 264.534 138.311 265.387 140.017 267.094C141.723 268.801 142.577 270.507 142.577 273.067C142.577 296.96 142.577 323.414 142.577 349.867C142.577 352.427 141.724 354.134 140.017 355.84C139.164 357.547 136.604 358.4 134.044 358.4ZM87.9644 341.333H125.511C125.511 320.853 125.511 300.373 125.511 281.6H93.0844C91.3784 300.373 89.6714 320.853 87.9644 341.333Z" fill="black"/>
<path d="M211.699 358.4H134.046C129.779 358.4 125.513 354.987 125.513 349.867C125.513 323.414 125.513 297.814 125.513 273.067C125.513 268.8 129.78 264.534 134.046 264.534H212.553C216.82 264.534 221.086 267.947 221.086 273.067C221.939 284.16 221.939 296.107 221.939 307.2C221.939 320.853 221.086 335.36 221.086 350.72C220.232 354.987 216.819 358.4 211.699 358.4ZM142.579 341.333H204.019C204.872 329.386 204.872 318.293 204.872 307.2C204.872 298.667 204.872 290.133 204.019 281.6H142.579C142.579 301.227 142.579 320.853 142.579 341.333Z" fill="black"/>
<path d="M378.098 358.4H299.591C295.324 358.4 291.058 354.987 291.058 350.72C290.205 335.36 290.205 320.853 290.205 307.2C290.205 296.107 290.205 284.16 291.058 273.067C291.058 268.8 295.325 264.534 299.591 264.534H378.951C383.218 264.534 387.484 267.947 387.484 273.067C387.484 296.96 387.484 323.414 387.484 349.867C386.631 354.987 383.218 358.4 378.098 358.4ZM308.124 341.333H370.417C370.417 320.853 370.417 300.373 370.417 281.6H307.27C307.27 290.133 306.417 298.667 306.417 307.2C307.271 318.293 307.271 329.387 308.124 341.333Z" fill="black"/>
<path d="M179.272 221.867H162.205C157.085 221.867 153.672 218.454 153.672 213.334C153.672 208.214 157.085 204.801 162.205 204.801H179.272C184.392 204.801 187.805 208.214 187.805 213.334C187.805 218.453 183.539 221.867 179.272 221.867Z" fill="black"/>
<path d="M193.779 477.013H192.926C168.179 473.6 145.139 460.8 129.779 440.32C128.926 438.613 128.072 436.907 128.072 435.2C126.365 389.12 125.512 344.747 125.512 302.933C125.512 159.573 134.899 93.013 134.899 92.16C134.899 90.453 135.752 88.747 137.459 87.893C138.312 87.04 140.019 85.333 140.872 84.48C153.672 71.68 162.205 67.413 170.739 68.267C173.299 68.267 175.859 70.827 177.566 73.387C205.726 131.414 221.939 216.747 221.939 307.2C221.939 365.227 215.112 421.547 202.312 471.04C201.459 474.453 198.045 477.013 193.779 477.013ZM145.139 431.787C156.232 445.44 171.592 454.827 187.806 458.24C198.899 412.16 204.873 360.107 204.873 306.347C204.873 221.014 190.366 141.654 165.62 86.187C163.06 87.894 159.647 90.454 153.673 96.427L152.82 97.28C151.113 110.933 144.287 176.64 143.433 302.933C142.579 343.893 143.432 387.413 145.139 431.787Z" fill="black"/>
<path d="M317.511 477.013C313.244 477.013 309.831 474.453 308.978 470.186C297.031 421.546 290.205 365.226 290.205 307.199C290.205 216.746 306.418 131.412 334.578 73.3861C335.431 70.8261 337.991 68.2661 340.551 68.2661C349.084 67.4131 358.471 72.5331 371.271 84.4791C372.978 85.3321 373.831 87.0391 375.538 87.8921C376.391 88.7451 377.245 90.4521 378.098 92.1591C378.098 93.0121 387.485 159.572 387.485 302.932C387.485 344.745 386.632 389.119 384.925 435.199C384.925 436.906 384.072 438.612 383.218 440.319C367.858 460.799 343.965 474.452 319.218 477.012C318.364 477.013 318.364 477.013 317.511 477.013ZM346.524 87.0401C321.777 142.507 307.271 221.867 307.271 307.2C307.271 360.96 313.244 413.013 324.338 459.093C341.405 455.68 356.765 446.293 367.858 431.786C369.565 386.559 370.418 343.039 370.418 302.933C370.418 177.493 362.738 111.786 361.031 97.2801L360.178 96.4271C353.351 91.3071 349.084 87.8931 346.524 87.0401Z" fill="black"/>
<path d="M340.551 88.747H339.698C336.285 88.747 332.871 86.187 332.018 81.92C328.605 67.413 298.738 51.2 256.071 51.2C213.404 51.2 183.538 67.413 180.124 81.92C179.271 86.187 175.857 88.747 171.591 88.747C167.324 88.747 163.911 85.334 163.911 81.92L162.204 75.947V75.094C162.204 68.267 162.204 44.374 180.124 25.601C196.338 8.533 221.938 0 256.924 0C292.764 0 319.217 9.387 335.431 28.16C349.938 45.227 351.644 64.853 351.644 73.387C352.497 75.947 352.497 78.507 351.644 81.067L349.937 84.48C346.524 87.04 343.964 88.747 340.551 88.747ZM256.071 17.067C226.204 17.067 204.871 23.894 192.071 37.547C186.951 42.667 184.391 47.787 182.684 52.907C198.897 41.814 226.204 34.134 256.071 34.134C285.938 34.134 312.391 41.814 329.458 52.907C327.751 47.787 325.191 42.667 320.925 38.4C308.124 24.747 286.791 17.067 256.071 17.067Z" fill="black"/>
<path d="M273.139 119.467H239.006C233.886 119.467 230.473 116.054 230.473 110.934C230.473 105.814 233.886 102.401 239.006 102.401H273.139C278.259 102.401 281.672 105.814 281.672 110.934C281.672 116.054 277.405 119.467 273.139 119.467Z" fill="black"/>
</svg>
