<svg width="512" height="512" viewBox="0 0 512 512" fill="none" xmlns="http://www.w3.org/2000/svg">
<path d="M493.526 7.91797H18.474C12.668 7.91797 7.91699 12.669 7.91699 18.475V493.527C7.91699 499.333 12.668 504.084 18.474 504.084H493.526C499.332 504.084 504.083 499.333 504.083 493.527V18.474C504.082 12.668 499.332 7.91797 493.526 7.91797Z" fill="#EEAE3A"/>
<path d="M96.022 7.91797H18.474C12.668 7.91797 7.91699 12.669 7.91699 18.475V493.527C7.91699 499.333 12.668 504.084 18.474 504.084H493.526C499.332 504.084 504.083 499.333 504.083 493.527V420.589C290.505 392.174 122.099 222.23 96.022 7.91797Z" fill="#F9BA48"/>
<path d="M493.526 0H155.711V15.835H493.525C494.955 15.835 496.164 17.044 496.164 18.474V448.66H335.174V464.495H496.164V493.526C496.164 494.956 494.955 496.165 493.525 496.165H345.735V512H493.526C503.712 512 512 503.712 512 493.526V18.474C512 8.288 503.712 0 493.526 0Z" fill="black"/>
<path d="M15.835 493.526V464.495H176.825V448.66H15.835V18.474C15.835 17.044 17.044 15.835 18.474 15.835H134.599V0H18.474C8.288 0 0 8.288 0 18.474V493.526C0 503.712 8.288 512 18.474 512H324.622V496.165H18.474C17.044 496.165 15.835 494.956 15.835 493.526Z" fill="black"/>
<path d="M139.876 184.742H236.886L168.271 253.358L179.467 264.554L248.082 195.939V292.948H263.918V195.939L332.533 264.554L343.729 253.358L275.114 184.742H372.124V168.907H275.114L343.729 100.292L332.533 89.0949L263.918 157.711V60.7009H248.082V157.711L179.467 89.0949L168.271 100.292L236.886 168.907H139.876V184.742Z" fill="white"/>
<path d="M372.124 126.68H405.793L382.361 150.113L393.557 161.31L416.99 137.877V171.546H432.825V137.877L456.257 161.31L467.454 150.113L444.021 126.68H477.691V110.845H444.021L467.454 87.413L456.257 76.216L432.825 99.649V65.979H416.99V99.649L393.557 76.216L382.361 87.413L405.793 110.845H372.124V126.68Z" fill="white"/>
<path d="M129.639 87.413L118.443 76.216L95.0096 99.649V65.979H79.1746V99.649L55.7426 76.216L44.5456 87.413L67.9786 110.845H34.3086V126.68H67.9786L44.5456 150.113L55.7426 161.31L79.1746 137.877V171.546H95.0096V137.877L118.443 161.31L129.639 150.113L106.207 126.68H139.876V110.845H106.207L129.639 87.413Z" fill="white"/>
<path d="M187.381 137.237H166.268V153.072H187.381V137.237Z" fill="black"/>
<path d="M187.381 200.577H166.268V216.412H187.381V200.577Z" fill="white"/>
<path d="M345.732 200.577H324.619V216.412H345.732V200.577Z" fill="black"/>
<path d="M345.732 137.237H324.619V153.072H345.732V137.237Z" fill="white"/>
<path d="M298.226 89.7319H277.113V105.567H298.226V89.7319Z" fill="black"/>
<path d="M234.886 89.7319H213.773V105.567H234.886V89.7319Z" fill="white"/>
<path d="M298.226 248.082H277.113V263.917H298.226V248.082Z" fill="white"/>
<path d="M234.886 248.082H213.773V263.917H234.886V248.082Z" fill="black"/>
<path d="M97.6491 36.948H76.5361V52.783H97.6491V36.948Z" fill="black"/>
<path d="M97.6491 184.742H76.5361V200.577H97.6491V184.742Z" fill="black"/>
<path d="M435.464 36.948H414.351V52.783H435.464V36.948Z" fill="black"/>
<path d="M435.464 184.742H414.351V200.577H435.464V184.742Z" fill="black"/>
<path d="M263.917 303.505H248.082V482.969H263.917V303.505Z" fill="black"/>
<path d="M216.412 482.969H232.247C232.247 433.169 207.799 372.605 159.582 302.957C124 251.56 87.8752 213.929 87.5142 213.556L76.1152 224.548C77.5182 226.002 216.412 371.332 216.412 482.969Z" fill="black"/>
<path d="M279.753 482.969H295.588C295.588 371.404 434.483 226.002 435.885 224.547L424.486 213.555C424.125 213.929 388 251.559 352.418 302.957C304.201 372.605 279.753 433.169 279.753 482.969Z" fill="black"/>
</svg>
