<svg width="512" height="512" viewBox="0 0 512 512" fill="none" xmlns="http://www.w3.org/2000/svg">
<g clip-path="url(#clip0_145_1420)">
<path d="M388.716 13.4741H42.4424V498.527H388.716V13.4741Z" fill="#F9BA48"/>
<path d="M469.558 13.4741H388.716V99.7061H469.558V13.4741Z" fill="#EFEFEF"/>
<path d="M469.558 99.7051H388.716V185.937H469.558V99.7051Z" fill="#CA463D"/>
<path d="M469.558 185.937H388.716V270.821H469.558V185.937Z" fill="#EFEFEF"/>
<path d="M469.558 270.821H388.716V357.053H469.558V270.821Z" fill="#CA463D"/>
<path d="M293.726 230.4H243.2V178.526C243.2 163.643 231.136 151.579 216.253 151.579C201.37 151.579 189.306 163.643 189.306 178.526V230.4H138.78C123.897 230.4 111.833 242.464 111.833 257.347C111.833 272.23 123.897 284.294 138.78 284.294H189.306V333.473C189.306 348.356 201.37 360.42 216.253 360.42C231.136 360.42 243.2 348.356 243.2 333.473V284.294H293.726C308.609 284.294 320.673 272.23 320.673 257.347C320.674 242.464 308.609 230.4 293.726 230.4Z" fill="#EFEFEF"/>
<path d="M470.232 0H389.39H43.1158C35.6738 0 28.9688 6.034 28.9688 13.474V498.527C28.9688 505.967 35.6748 512.001 43.1158 512.001H389.39C396.832 512.001 402.19 505.968 402.19 498.527V370.527H470.232C477.674 370.527 483.032 364.493 483.032 357.053V13.474C483.032 6.034 477.673 0 470.232 0ZM456.084 172.463H402.189V113.179H456.084V172.463ZM402.189 199.411H456.084V257.348H402.189V199.411ZM456.084 86.232H402.189V26.947H456.084V86.232ZM375.242 485.053H55.9158V26.947H375.242V485.053ZM456.084 343.579H402.189V284.295H456.084V343.579Z" fill="black"/>
<path d="M293.726 216.926H256.673V178.526C256.673 156.238 238.54 138.105 216.252 138.105C193.964 138.105 175.831 156.238 175.831 178.526V216.926H138.778C116.49 216.926 98.3574 235.059 98.3574 257.347C98.3574 279.635 116.49 297.768 138.778 297.768H175.831V333.473C175.831 355.761 193.964 373.894 216.252 373.894C238.54 373.894 256.673 355.761 256.673 333.473V297.768H293.726C316.014 297.768 334.147 279.635 334.147 257.347C334.147 235.059 316.014 216.926 293.726 216.926ZM293.726 270.821H243.873C236.432 270.821 229.726 276.855 229.726 284.295V333.474C229.726 340.903 223.682 346.948 216.252 346.948C208.822 346.948 202.778 340.904 202.778 333.474V284.295C202.778 276.855 197.42 270.821 189.978 270.821H138.778C131.349 270.821 125.304 264.777 125.304 257.347C125.304 249.918 131.348 243.873 138.778 243.873H189.978C197.42 243.873 202.778 237.839 202.778 230.399V178.525C202.778 171.096 208.822 165.051 216.252 165.051C223.682 165.051 229.726 171.095 229.726 178.525V230.4C229.726 237.84 236.432 243.874 243.873 243.874H293.726C301.155 243.874 307.2 249.918 307.2 257.348C307.2 264.777 301.156 270.821 293.726 270.821Z" fill="black"/>
</g>
<defs>
<clipPath id="clip0_145_1420">
<rect width="512" height="512" fill="white"/>
</clipPath>
</defs>
</svg>
