<svg width="490" height="490" viewBox="0 0 490 490" fill="none" xmlns="http://www.w3.org/2000/svg">
<g clip-path="url(#clip0_145_1458)">
<path d="M248.825 130.154H26.7969V489.993H248.825V130.154Z" fill="#F7931E"/>
<path d="M118.671 130.154H26.7969V489.993H118.671V130.154Z" fill="#FBB03B"/>
<path d="M256.481 428.743H26.7969V482.336H256.481V428.743Z" fill="#E9483D"/>
<path d="M118.671 428.743H26.7969V482.336H118.671V428.743Z" fill="#ED6D64"/>
<path d="M49.7641 130.154H34.4521V474.68H49.7641V130.154Z" fill="white"/>
<path d="M463.197 267.965H210.545V336.87H463.197V267.965Z" fill="#E9483D"/>
<path d="M325.387 267.965H210.545V336.87H325.387V267.965Z" fill="#ED6D64"/>
<path d="M470.854 336.87H218.201V482.337H470.854V336.87Z" fill="#F7931E"/>
<path d="M325.387 336.87H218.201V482.337H325.387V336.87Z" fill="#FBB03B"/>
<path d="M233.51 275.621H218.198V474.68H233.51V275.621Z" fill="white"/>
<path d="M133.98 421.088H103.356V436.4H133.98V421.088Z" fill="#1D1D1B"/>
<path d="M179.919 421.088H149.294V436.4H179.919V421.088Z" fill="#1D1D1B"/>
<path d="M88.0439 421.088H57.4199V436.4H88.0439V421.088Z" fill="#1D1D1B"/>
<path d="M401.946 260.309V229.684C401.946 195.912 374.469 168.435 340.697 168.435C306.925 168.435 279.448 195.912 279.448 229.684V260.309H264.136V114.842H202.887V61.249C202.887 27.477 175.41 0 141.638 0C107.866 0 80.3887 27.477 80.3887 61.249V114.842H19.1387V489.993H202.886H210.542H470.851V260.309H401.946ZM294.76 229.684C294.76 204.353 315.366 183.747 340.697 183.747C366.028 183.747 386.634 204.353 386.634 229.684V260.309H294.76V229.684ZM271.792 298.589V313.901H302.416V298.589H294.76V275.62H386.634V298.589H378.978V313.901H409.603V298.589H401.947V275.62H455.54V336.869H218.2V275.62H279.449V298.589H271.792ZM95.7007 61.249C95.7007 35.918 116.307 15.312 141.638 15.312C166.969 15.312 187.575 35.918 187.575 61.249V114.842H95.7007V61.249ZM34.4517 474.68V436.4H42.1077V421.088H34.4517V130.154H80.3887V153.122H72.7327V168.434H103.358V153.122H95.7017V130.154H187.576V153.122H179.92V168.434H210.545V153.122H202.889V130.154H248.826V260.308H202.889V421.087H195.233V436.4H202.889V474.681H34.4517V474.68ZM218.199 474.68V352.182H455.539V474.68H218.199Z" fill="#1D1D1B"/>
</g>
<defs>
<clipPath id="clip0_145_1458">
<rect width="489.993" height="489.993" fill="white"/>
</clipPath>
</defs>
</svg>
