<svg width="221" height="36" viewBox="0 0 221 36" fill="none" xmlns="http://www.w3.org/2000/svg">
<path d="M10.5063 34.8994C9.64241 34.2276 8.96207 33.3921 8.51631 32.4554C5.76877 26.199 11.0429 18.5015 11.0429 18.5015C11.7174 17.4686 12.4685 16.4762 13.2914 15.5306L11.7134 14.4942L12.2696 13.8336L4.88068 9.44279C-5.21676 21.7718 2.19553 31.9643 10.5063 34.8994ZM8.42319 13.2338L10.6717 14.4936L9.20219 16.5348L6.95217 15.2766L8.42319 13.2338ZM4.20095 14.2939L5.98326 15.4322L4.75408 16.9324L2.97177 15.7941L4.20095 14.2939ZM16.6741 12.0559L15.3957 13.858L13.201 12.647L14.4794 10.8449L16.6741 12.0559ZM19.8217 6.7137L18.6101 8.32801L16.8277 7.28667L18.0394 5.67263L19.8217 6.7137ZM15.5196 7.89543L14.0175 9.78999L12.0124 8.55433L13.5142 6.65976L15.5171 7.89489L15.5196 7.89543ZM10.7762 8.10901L8.68654 10.8587L5.69625 9.09098L7.78586 6.34102L10.7765 8.10901H10.7762ZM17.6541 3.83417L16.1824 5.74093L14.1235 4.50581L15.5949 2.59904L17.6537 3.83417H17.6541ZM12.9097 4.96684L11.722 6.64729L9.82908 5.60596L11.0168 3.92551L12.9097 4.96684Z" fill="url(#paint0_linear_1_116)"/>
<path d="M40.935 4.90668L40.0264 6.54593L38.0597 5.69784L38.968 4.0586L40.9347 4.90668H40.935ZM36.4322 1.12785L34.1164 0.125L33.0532 2.03691L35.3693 3.03976L36.4322 1.12785ZM37.9183 7.37232L35.3401 6.29305L34.2231 8.3684L36.8016 9.44767L37.9183 7.37232ZM38.9235 11.3422L36.4762 10.3017L35.3545 12.3535L37.7644 13.4273L38.9235 11.3422ZM33.0683 8.22149L29.5958 6.69906L28.004 9.52302L31.4353 11.1235L33.0698 8.22149H33.0683ZM35.4501 4.46353L33.3089 3.53847L32.3117 5.33384L34.4532 6.25889L35.4501 4.46353ZM8.98273 32.2852C8.65604 31.5757 8.44358 30.8293 8.35154 30.0678C8.34863 30.0641 8.34732 30.0596 8.34785 30.0551C8.05377 27.8675 8.49413 25.1894 9.63696 22.2491C9.60316 27.2802 15.1465 28.7758 21.3836 21.0886C23.6269 18.324 28.052 10.3408 28.052 10.3408L32.7628 12.6495L32.4988 13.0772L34.6849 14.1185L34.9345 13.7119L37.0096 14.6709C32.7465 23.6304 23.4272 38.325 12.7194 35.5358C11.9579 35.2951 11.2606 34.9187 10.671 34.4302C9.93581 33.8336 9.35901 33.1011 8.9818 32.2852H8.98273ZM29.5731 14.6587L31.7573 15.6228L32.7631 13.8488L30.577 12.8864L29.5731 14.6587ZM30.8382 18.5015L33.3737 19.5425L34.4668 17.4713L31.9313 16.431L30.8382 18.5015Z" fill="url(#paint1_linear_1_116)"/>
<path style="mix-blend-mode:soft-light" d="M15.4019 35.0707C14.5818 35.0692 13.7662 34.9638 12.9801 34.7576C12.3623 34.5528 11.7956 34.2437 11.3118 33.8477C10.6678 33.3261 10.1625 32.6854 9.83215 31.9713C9.53928 31.3318 9.34887 30.6594 9.26642 29.9735L9.23753 29.7548C9.11107 28.3066 9.23007 26.8498 9.59062 25.4325C9.77791 25.7048 10.0009 25.9567 10.255 26.183C10.6458 26.5295 11.1119 26.8028 11.6254 26.9867C12.1388 27.1705 12.6891 27.261 13.2431 27.2528C15.9983 27.2528 19.1552 25.2319 22.1326 21.5626C24.0043 19.2553 27.2743 13.5515 28.4494 11.4669L31.5156 12.9696L31.2464 13.406L35.0568 15.2203L35.3119 14.8059L35.8285 15.0444C33.1267 20.5522 25.0817 35.0707 15.4019 35.0707Z" fill="url(#paint2_linear_1_116)"/>
<path style="mix-blend-mode:soft-light" d="M7.56836 32.5413C4.67835 30.6996 2.55726 28.0689 1.5334 25.0566C0.484596 21.8648 0.291302 16.7986 5.11553 10.5627L10.9541 14.0321L10.4244 14.6611L12.0072 15.7008C11.3658 16.4668 10.7772 17.2661 10.2446 18.0944C9.9158 18.5793 4.92009 26.1058 7.56836 32.5413Z" fill="url(#paint3_linear_1_116)"/>
<path d="M162.167 19.7853C161.203 18.7379 160.147 18.2142 158.997 18.2142C157.645 18.2142 156.565 18.8603 155.756 20.1525C155.057 21.3437 154.712 22.6703 154.754 24.0092C154.754 25.9679 155.554 26.9475 157.155 26.9479C157.759 26.9576 158.36 26.8676 158.926 26.6825L159.252 25.1113H157.225L158.111 22.1932H163.799L162.26 29.0498C160.56 29.8201 158.673 30.2192 156.759 30.2131C154.553 30.2131 152.906 29.6688 151.818 28.5802C150.683 27.3721 150.101 25.8373 150.187 24.2746C150.187 21.5269 151.003 19.2829 152.634 17.5426C153.392 16.7171 154.36 16.0582 155.461 15.6189C156.562 15.1795 157.765 14.9718 158.973 15.0123C160.031 14.9744 161.084 15.1413 162.06 15.5011C163.035 15.8609 163.907 16.4047 164.614 17.0936L162.167 19.7853Z" fill="url(#paint4_linear_1_116)"/>
<path d="M177.478 22.1114C176.794 22.9578 175.87 23.6331 174.797 24.0703L176.825 29.9065H172.42L170.998 25.0495C170.532 25.0773 170.221 25.091 170.066 25.0907H169.576L168.411 29.9065H164.099L167.642 15.316C169.31 15.1163 170.992 15.014 172.677 15.01C174.238 14.9282 175.78 15.3491 177.011 16.1934C177.487 16.5654 177.862 17.0262 178.108 17.5418C178.355 18.0573 178.466 18.6146 178.433 19.1727C178.458 20.2139 178.125 21.2376 177.478 22.1114ZM173.492 18.4394C173.113 18.1505 172.619 18.0038 172.117 18.031C171.837 18.0309 171.556 18.0446 171.278 18.0722L170.299 22.1531H170.881C171.305 22.1775 171.73 22.1268 172.13 22.004C172.531 21.8813 172.899 21.689 173.212 21.4387C173.472 21.1926 173.672 20.9031 173.8 20.5876C173.928 20.272 173.982 19.937 173.958 19.6028C173.98 19.176 173.813 18.7585 173.492 18.4366V18.4394Z" fill="url(#paint5_linear_1_116)"/>
<path d="M188.547 29.9048H178.125L181.668 15.3144H191.854L191.084 18.4978H185.211L184.605 21.0076H189.197L188.428 24.1098H183.839L183.209 26.7214H189.619L188.547 29.9048Z" fill="url(#paint6_linear_1_116)"/>
<path d="M200.734 29.9048H190.313L193.855 15.3144H204.041L203.272 18.4978H197.398L196.792 21.0076H201.384L200.615 24.1098H196.023L195.394 26.7214H201.803L200.734 29.9048Z" fill="url(#paint7_linear_1_116)"/>
<path d="M216.465 29.9254H212.549L208.54 21.5589L206.582 29.9043H202.503L206.046 15.3138H209.962L213.948 23.7215L215.905 15.3138H220.008L216.465 29.9254Z" fill="url(#paint8_linear_1_116)"/>
<path d="M66.1251 29.7824C64.0163 30.2231 61.8593 30.4626 59.6916 30.4968C58.1691 30.5801 56.6681 30.1492 55.4975 29.2928C54.9945 28.8714 54.601 28.3601 54.3436 27.7938C54.0863 27.2274 53.9712 26.6191 54.0061 26.0103C54.0736 25.0902 54.2223 24.1759 54.4509 23.2758L56.3154 15.6031H60.6505L58.5764 24.1154C58.4181 24.6286 58.3244 25.1555 58.2968 25.6865C58.2754 26.1422 58.4547 26.5877 58.7975 26.9311C59.0141 27.0904 59.2648 27.2104 59.535 27.2841C59.8051 27.3577 60.0893 27.3835 60.3709 27.3601C61.0681 27.3469 61.7625 27.2785 62.4457 27.1559L65.2659 15.6059H69.5775L66.1251 29.7824Z" fill="url(#paint9_linear_1_116)"/>
<path d="M93.0129 18.9874H88.4935L85.7609 30.1908H81.4722L84.1996 18.9874H79.4698L80.2852 15.6003H94.1535L93.0129 18.9874Z" fill="url(#paint10_linear_1_116)"/>
<path d="M104.897 29.7824C102.789 30.2231 100.632 30.4626 98.4645 30.4968C96.942 30.5801 95.441 30.1492 94.2704 29.2928C93.7673 28.8714 93.3738 28.3602 93.1164 27.7938C92.8591 27.2274 92.744 26.6191 92.779 26.0103C92.8467 25.0902 92.9954 24.176 93.2238 23.2758L95.0889 15.6031H99.4234L97.3486 24.1154C97.1905 24.6286 97.097 25.1555 97.0696 25.6865C97.0483 26.1422 97.2275 26.5877 97.5704 26.9311C97.787 27.0905 98.0376 27.2105 98.3078 27.2841C98.5779 27.3578 98.8621 27.3836 99.1438 27.3601C99.8408 27.3469 100.535 27.2785 101.218 27.1559L104.039 15.6059H108.35L104.897 29.7824Z" fill="url(#paint11_linear_1_116)"/>
<path d="M120.605 22.3951C119.922 23.2418 118.997 23.9172 117.924 24.3541L119.952 30.1908H115.546L114.125 25.3338C113.659 25.3612 113.348 25.3748 113.193 25.3744H112.705L111.539 30.1908H107.228L110.77 15.6003C112.439 15.4004 114.121 15.298 115.805 15.2938C117.367 15.2122 118.908 15.6333 120.14 16.4777C120.616 16.8497 120.991 17.3105 121.237 17.8261C121.483 18.3417 121.594 18.899 121.562 19.457C121.586 20.4981 121.252 21.5216 120.605 22.3951ZM116.618 18.7232C116.239 18.4343 115.745 18.2878 115.243 18.3154C114.963 18.3153 114.683 18.3289 114.404 18.356L113.425 22.4374H114.008C114.431 22.4618 114.856 22.4111 115.257 22.2883C115.658 22.1656 116.026 21.9733 116.339 21.723C116.599 21.4768 116.798 21.1872 116.926 20.8717C117.055 20.5562 117.108 20.2213 117.085 19.8871C117.106 19.4607 116.939 19.0436 116.618 18.722V18.7232Z" fill="url(#paint12_linear_1_116)"/>
<path d="M135.217 30.2114H131.301L127.292 21.8443L125.334 30.1897H121.255L124.798 15.602H128.714L132.7 24.0091L134.657 15.602H138.759L135.217 30.2114Z" fill="url(#paint13_linear_1_116)"/>
<path d="M70.2981 25.844L71.0213 22.8441H79.8078L79.0853 25.844H70.2981Z" fill="url(#paint14_linear_1_116)"/>
<path d="M138.77 25.844L139.493 22.8441H148.279L147.557 25.844H138.77Z" fill="url(#paint15_linear_1_116)"/>
<g opacity="0.65">
<path opacity="0.65" d="M78.9786 23.9813L79.166 23.2997H71.4432L71.2557 23.9813H78.9786Z" fill="url(#paint16_linear_1_116)"/>
<path opacity="0.65" d="M67.1474 23.4021L68.9344 16.0582H65.6865L63.8926 23.4021H67.1474Z" fill="url(#paint17_linear_1_116)"/>
<path opacity="0.65" d="M58.2166 23.4021L60.0074 16.0582H56.7367L54.9618 23.3609L54.9523 23.4043L58.2166 23.4021Z" fill="url(#paint18_linear_1_116)"/>
<path opacity="0.65" d="M83.6595 23.4021H86.8838L88.0696 18.5318H92.624L93.459 16.0554H80.709L80.1129 18.5318H84.8459L83.6595 23.4021Z" fill="url(#paint19_linear_1_116)"/>
<path opacity="0.65" d="M105.917 23.4021L107.704 16.0582H104.456L102.662 23.4021H105.917Z" fill="url(#paint20_linear_1_116)"/>
<path opacity="0.65" d="M96.9857 23.4021L98.7771 16.0582H95.5063L93.7314 23.3609L93.7219 23.4043L96.9857 23.4021Z" fill="url(#paint21_linear_1_116)"/>
<path opacity="0.65" d="M118.715 23.4021C119.284 23.0636 119.777 22.6373 120.171 22.1442C120.759 21.344 121.061 20.4084 121.039 19.457C121.072 18.9643 120.978 18.4714 120.763 18.0151C120.548 17.5589 120.218 17.1511 119.798 16.8221C118.658 16.0531 117.239 15.6719 115.803 15.7494C114.264 15.7533 112.727 15.8404 111.201 16.0104L109.406 23.4021H118.715ZM113.976 17.9387L114.35 17.902C114.647 17.8731 114.946 17.8586 115.246 17.8586C115.56 17.8301 115.877 17.8626 116.175 17.9539C116.473 18.0451 116.745 18.1928 116.97 18.3865C117.195 18.5801 117.369 18.8149 117.479 19.0741C117.589 19.3333 117.632 19.6105 117.605 19.8859C117.629 20.2801 117.562 20.6746 117.408 21.0455C117.254 21.4164 117.015 21.7563 116.707 22.0446C116.346 22.3376 115.92 22.5637 115.456 22.7093C114.992 22.855 114.5 22.9173 114.008 22.8925H112.784L113.976 17.9387Z" fill="url(#paint22_linear_1_116)"/>
<path opacity="0.65" d="M126.395 23.4021L127.121 20.3088L128.603 23.4021H131.849L128.366 16.0582H125.219L123.436 23.4021H126.395Z" fill="url(#paint23_linear_1_116)"/>
<path opacity="0.65" d="M136.336 23.4021L138.115 16.0582H135.08L133.369 23.4021H136.336Z" fill="url(#paint24_linear_1_116)"/>
<path opacity="0.65" d="M147.45 23.9813L147.637 23.2997H139.915L139.727 23.9813H147.45Z" fill="url(#paint25_linear_1_116)"/>
</g>
<g style="mix-blend-mode:overlay" opacity="0.5">
<path style="mix-blend-mode:overlay" opacity="0.5" d="M163.139 22.7651L163.166 22.6472H158.511L158.476 22.7651H163.139Z" fill="url(#paint26_linear_1_116)"/>
<path style="mix-blend-mode:overlay" opacity="0.5" d="M154.318 22.766C154.435 21.7752 154.769 20.8133 155.3 19.9325C156.203 18.4893 157.446 17.7577 158.997 17.7577C159.598 17.773 160.188 17.8979 160.731 18.1246C161.273 18.3513 161.756 18.6747 162.147 19.074L163.926 17.1168C163.273 16.5604 162.497 16.1268 161.645 15.8428C160.793 15.5587 159.884 15.4301 158.974 15.465C157.842 15.4218 156.714 15.6133 155.682 16.024C154.65 16.4347 153.744 17.0529 153.037 17.8284C151.758 19.2478 150.984 20.9647 150.81 22.766H154.318Z" fill="url(#paint27_linear_1_116)"/>
<path style="mix-blend-mode:overlay" opacity="0.5" d="M176.108 22.7651C176.464 22.5001 176.779 22.1952 177.043 21.8582C177.633 21.0583 177.935 20.1226 177.913 19.171C177.945 18.6784 177.851 18.1856 177.636 17.7294C177.421 17.2732 177.091 16.8654 176.671 16.5361C175.532 15.7674 174.112 15.3865 172.677 15.464C171.138 15.4678 169.601 15.5549 168.074 15.725L166.365 22.7651H176.108ZM170.846 17.6533L171.219 17.6166C171.517 17.5874 171.817 17.5727 172.117 17.5726C172.431 17.5439 172.749 17.5762 173.047 17.6674C173.345 17.7585 173.617 17.9061 173.843 18.0998C174.068 18.2934 174.242 18.5283 174.352 18.7876C174.462 19.047 174.505 19.3243 174.479 19.6C174.503 19.9942 174.436 20.3886 174.281 20.7594C174.127 21.1303 173.888 21.47 173.58 21.7581C173.219 22.051 172.793 22.2771 172.329 22.4228C171.866 22.5685 171.373 22.6308 170.881 22.606H169.657L170.846 17.6533Z" fill="url(#paint28_linear_1_116)"/>
<path style="mix-blend-mode:overlay" opacity="0.5" d="M188.231 22.7651L188.554 21.4632H183.966L184.792 18.0422H190.665L191.214 15.77H182.092L180.394 22.7651H188.231Z" fill="url(#paint29_linear_1_116)"/>
<path style="mix-blend-mode:overlay" opacity="0.5" d="M200.419 22.7651L200.742 21.4632H196.154L196.98 18.0422H202.854L203.403 15.77H194.28L192.583 22.7651H200.419Z" fill="url(#paint30_linear_1_116)"/>
<path style="mix-blend-mode:overlay" opacity="0.5" d="M207.726 22.7651L208.369 20.0239L209.683 22.7651H212.931L209.613 15.7689H206.467L204.769 22.764L207.726 22.7651Z" fill="url(#paint31_linear_1_116)"/>
<path style="mix-blend-mode:overlay" opacity="0.5" d="M217.669 22.7651L219.365 15.77H216.33L214.702 22.7651H217.669Z" fill="url(#paint32_linear_1_116)"/>
</g>
<defs>
<linearGradient id="paint0_linear_1_116" x1="4.93561" y1="25.3385" x2="20.9463" y2="18.4255" gradientUnits="userSpaceOnUse">
<stop stop-color="#73DB05"/>
<stop offset="0.502" stop-color="#77ED03"/>
<stop offset="1" stop-color="#7BFC03"/>
</linearGradient>
<linearGradient id="paint1_linear_1_116" x1="16.7876" y1="28.7666" x2="36.7341" y2="4.46334" gradientUnits="userSpaceOnUse">
<stop stop-color="#73DB05"/>
<stop offset="0.502" stop-color="#77ED03"/>
<stop offset="1" stop-color="#7BFC03"/>
</linearGradient>
<linearGradient id="paint2_linear_1_116" x1="23.4409" y1="25.6764" x2="27.8292" y2="44.8176" gradientUnits="userSpaceOnUse">
<stop stop-color="white" stop-opacity="0"/>
<stop offset="0.081" stop-color="white" stop-opacity="0.082"/>
<stop offset="1" stop-color="white"/>
</linearGradient>
<linearGradient id="paint3_linear_1_116" x1="-2.12411" y1="19.9036" x2="10.1771" y2="20.5116" gradientUnits="userSpaceOnUse">
<stop stop-color="white"/>
<stop offset="1" stop-color="white" stop-opacity="0"/>
</linearGradient>
<linearGradient id="paint4_linear_1_116" x1="153.456" y1="34.6686" x2="158.353" y2="20.4493" gradientUnits="userSpaceOnUse">
<stop stop-color="#76E704"/>
<stop offset="0.753" stop-color="#7BFC03"/>
</linearGradient>
<linearGradient id="paint5_linear_1_116" x1="167.469" y1="38.0007" x2="172.252" y2="23.7243" gradientUnits="userSpaceOnUse">
<stop stop-color="#76E704"/>
<stop offset="0.753" stop-color="#7BFC03"/>
</linearGradient>
<linearGradient id="paint6_linear_1_116" x1="179.512" y1="40.8477" x2="184.473" y2="26.6555" gradientUnits="userSpaceOnUse">
<stop stop-color="#76E704"/>
<stop offset="0.753" stop-color="#7BFC03"/>
</linearGradient>
<linearGradient id="paint7_linear_1_116" x1="190.862" y1="43.5323" x2="195.823" y2="29.3402" gradientUnits="userSpaceOnUse">
<stop stop-color="#76E704"/>
<stop offset="0.753" stop-color="#7BFC03"/>
</linearGradient>
<linearGradient id="paint8_linear_1_116" x1="203.834" y1="46.6119" x2="206.992" y2="31.9708" gradientUnits="userSpaceOnUse">
<stop stop-color="#76E704"/>
<stop offset="0.753" stop-color="#7BFC03"/>
</linearGradient>
<linearGradient id="paint9_linear_1_116" x1="64.0787" y1="13.457" x2="68.1704" y2="-1.00875" gradientUnits="userSpaceOnUse">
<stop stop-color="#76E704"/>
<stop offset="0.753" stop-color="#7BFC03"/>
</linearGradient>
<linearGradient id="paint10_linear_1_116" x1="86.2537" y1="18.7227" x2="90.6514" y2="4.33533" gradientUnits="userSpaceOnUse">
<stop stop-color="#76E704"/>
<stop offset="0.753" stop-color="#7BFC03"/>
</linearGradient>
<linearGradient id="paint11_linear_1_116" x1="100.188" y1="22.0416" x2="104.294" y2="7.56041" gradientUnits="userSpaceOnUse">
<stop stop-color="#76E704"/>
<stop offset="0.753" stop-color="#7BFC03"/>
</linearGradient>
<linearGradient id="paint12_linear_1_116" x1="114.584" y1="25.4355" x2="119.352" y2="11.158" gradientUnits="userSpaceOnUse">
<stop stop-color="#76E704"/>
<stop offset="0.753" stop-color="#7BFC03"/>
</linearGradient>
<linearGradient id="paint13_linear_1_116" x1="128.221" y1="28.6774" x2="131.378" y2="14.024" gradientUnits="userSpaceOnUse">
<stop stop-color="#76E704"/>
<stop offset="0.753" stop-color="#7BFC03"/>
</linearGradient>
<linearGradient id="paint14_linear_1_116" x1="77.4399" y1="16.6313" x2="77.8866" y2="2.13541" gradientUnits="userSpaceOnUse">
<stop stop-color="#76E704"/>
<stop offset="0.753" stop-color="#7BFC03"/>
</linearGradient>
<linearGradient id="paint15_linear_1_116" x1="141.233" y1="31.7658" x2="141.678" y2="17.2704" gradientUnits="userSpaceOnUse">
<stop stop-color="#76E704"/>
<stop offset="0.753" stop-color="#7BFC03"/>
</linearGradient>
<linearGradient id="paint16_linear_1_116" x1="75.2109" y1="31.0536" x2="75.2109" y2="16.9485" gradientUnits="userSpaceOnUse">
<stop stop-color="white"/>
<stop offset="1" stop-color="white" stop-opacity="0"/>
</linearGradient>
<linearGradient id="paint17_linear_1_116" x1="66.4135" y1="31.0471" x2="66.4135" y2="16.9542" gradientUnits="userSpaceOnUse">
<stop stop-color="#3C0C0C"/>
<stop offset="1" stop-color="white" stop-opacity="0"/>
</linearGradient>
<linearGradient id="paint18_linear_1_116" x1="57.4798" y1="31.0517" x2="57.4798" y2="16.9544" gradientUnits="userSpaceOnUse">
<stop stop-color="#3C0C0C"/>
<stop offset="1" stop-color="white" stop-opacity="0"/>
</linearGradient>
<linearGradient id="paint19_linear_1_116" x1="86.7859" y1="31.0501" x2="86.7859" y2="16.9517" gradientUnits="userSpaceOnUse">
<stop stop-color="#3C0C0C"/>
<stop offset="1" stop-color="white" stop-opacity="0"/>
</linearGradient>
<linearGradient id="paint20_linear_1_116" x1="105.183" y1="31.0471" x2="105.183" y2="16.9542" gradientUnits="userSpaceOnUse">
<stop stop-color="#3C0C0C"/>
<stop offset="1" stop-color="white" stop-opacity="0"/>
</linearGradient>
<linearGradient id="paint21_linear_1_116" x1="96.2495" y1="31.0517" x2="96.2495" y2="16.9544" gradientUnits="userSpaceOnUse">
<stop stop-color="#3C0C0C"/>
<stop offset="1" stop-color="white" stop-opacity="0"/>
</linearGradient>
<linearGradient id="paint22_linear_1_116" x1="115.226" y1="31.0647" x2="115.226" y2="16.9426" gradientUnits="userSpaceOnUse">
<stop stop-color="white"/>
<stop offset="1" stop-color="white" stop-opacity="0"/>
</linearGradient>
<linearGradient id="paint23_linear_1_116" x1="127.642" y1="31.0471" x2="127.642" y2="16.9542" gradientUnits="userSpaceOnUse">
<stop stop-color="#3C0C0C"/>
<stop offset="1" stop-color="white" stop-opacity="0"/>
</linearGradient>
<linearGradient id="paint24_linear_1_116" x1="135.742" y1="31.0471" x2="135.742" y2="16.9542" gradientUnits="userSpaceOnUse">
<stop stop-color="#3C0C0C"/>
<stop offset="1" stop-color="white" stop-opacity="0"/>
</linearGradient>
<linearGradient id="paint25_linear_1_116" x1="143.682" y1="31.0536" x2="143.682" y2="16.9485" gradientUnits="userSpaceOnUse">
<stop stop-color="white"/>
<stop offset="1" stop-color="white" stop-opacity="0"/>
</linearGradient>
<linearGradient id="paint26_linear_1_116" x1="160.821" y1="31.0353" x2="160.821" y2="16.9619" gradientUnits="userSpaceOnUse">
<stop stop-color="white"/>
<stop offset="1" stop-color="white" stop-opacity="0"/>
</linearGradient>
<linearGradient id="paint27_linear_1_116" x1="157.368" y1="31.0595" x2="157.368" y2="16.9423" gradientUnits="userSpaceOnUse">
<stop stop-color="white"/>
<stop offset="1" stop-color="white" stop-opacity="0"/>
</linearGradient>
<linearGradient id="paint28_linear_1_116" x1="172.142" y1="31.063" x2="172.142" y2="16.9383" gradientUnits="userSpaceOnUse">
<stop stop-color="white"/>
<stop offset="1" stop-color="white" stop-opacity="0"/>
</linearGradient>
<linearGradient id="paint29_linear_1_116" x1="185.804" y1="31.0543" x2="185.804" y2="16.9522" gradientUnits="userSpaceOnUse">
<stop stop-color="white"/>
<stop offset="1" stop-color="white" stop-opacity="0"/>
</linearGradient>
<linearGradient id="paint30_linear_1_116" x1="197.993" y1="31.0543" x2="197.993" y2="16.9522" gradientUnits="userSpaceOnUse">
<stop stop-color="white"/>
<stop offset="1" stop-color="white" stop-opacity="0"/>
</linearGradient>
<linearGradient id="paint31_linear_1_116" x1="208.85" y1="31.0556" x2="208.85" y2="16.9513" gradientUnits="userSpaceOnUse">
<stop stop-color="white"/>
<stop offset="1" stop-color="white" stop-opacity="0"/>
</linearGradient>
<linearGradient id="paint32_linear_1_116" x1="217.034" y1="31.0543" x2="217.034" y2="16.9522" gradientUnits="userSpaceOnUse">
<stop stop-color="white"/>
<stop offset="1" stop-color="white" stop-opacity="0"/>
</linearGradient>
</defs>
</svg>
