<svg width="166" height="115" viewBox="0 0 166 115" fill="none" xmlns="http://www.w3.org/2000/svg">
<g clip-path="url(#clip0_4432_5859)">
<rect width="166" height="115" fill="white"/>
<path d="M108.159 92.7573C107.196 91.5602 106.139 90.9617 104.989 90.9617C103.637 90.9617 102.557 91.7001 101.748 93.1769C101.049 94.5383 100.704 96.0543 100.746 97.5845C100.746 99.8231 101.547 100.943 103.147 100.943C103.751 100.954 104.352 100.851 104.918 100.64L105.244 98.8441H103.218L104.103 95.5092H109.791L108.252 103.345C106.553 104.226 104.666 104.682 102.752 104.675C100.545 104.675 98.8983 104.053 97.8104 102.809C96.675 101.428 96.0935 99.6738 96.1792 97.8878C96.1792 94.7476 96.9949 92.1831 98.6264 90.1942C99.3843 89.2507 100.352 88.4978 101.453 87.9956C102.554 87.4935 103.757 87.2561 104.966 87.3024C106.023 87.2591 107.077 87.4498 108.052 87.861C109.027 88.2722 109.899 88.8937 110.607 89.6811L108.159 92.7573Z" fill="url(#paint0_linear_4432_5859)"/>
<path d="M123.47 95.4166C122.787 96.3839 121.863 97.1557 120.789 97.6554L122.817 104.325H118.412L116.991 98.7745C116.525 98.8062 116.214 98.8219 116.058 98.8215H115.568L114.403 104.325H110.091L113.634 87.6505C115.303 87.4222 116.985 87.3053 118.669 87.3008C120.23 87.2073 121.772 87.6883 123.003 88.6532C123.48 89.0784 123.854 89.6049 124.101 90.1942C124.347 90.7834 124.458 91.4203 124.426 92.0581C124.45 93.2481 124.117 94.418 123.47 95.4166ZM119.484 91.2201C119.105 90.8899 118.611 90.7222 118.109 90.7534C117.829 90.7532 117.549 90.7689 117.27 90.8004L116.291 95.4643H116.874C117.297 95.4921 117.722 95.4342 118.122 95.2939C118.523 95.1536 118.891 94.9339 119.205 94.6479C119.464 94.3666 119.664 94.0357 119.792 93.6751C119.92 93.3145 119.974 92.9316 119.951 92.5496C119.972 92.0619 119.805 91.5847 119.484 91.2169V91.2201Z" fill="url(#paint1_linear_4432_5859)"/>
<path d="M134.539 104.323H124.117L127.66 87.6486H137.846L137.076 91.2868H131.203L130.597 94.1551H135.189L134.42 97.7005H129.831L129.202 100.685H135.611L134.539 104.323Z" fill="url(#paint2_linear_4432_5859)"/>
<path d="M146.727 104.323H136.305L139.848 87.6486H150.034L149.264 91.2868H143.391L142.785 94.1551H147.377L146.607 97.7005H142.015L141.386 100.685H147.796L146.727 104.323Z" fill="url(#paint3_linear_4432_5859)"/>
<path d="M162.457 104.347H158.542L154.533 94.7852L152.575 104.323H148.496L152.038 87.6479H155.954L159.94 97.2567L161.898 87.6479H166L162.457 104.347Z" fill="url(#paint4_linear_4432_5859)"/>
<path d="M12.1172 104.183C10.0085 104.687 7.85144 104.961 5.6838 105C4.16131 105.095 2.66028 104.603 1.48972 103.624C0.986707 103.142 0.593173 102.558 0.33583 101.911C0.078487 101.263 -0.0366291 100.568 -0.00170252 99.8725C0.065812 98.8208 0.214519 97.776 0.443111 96.7473L2.30758 87.9785H6.64272L4.56855 97.7068C4.41033 98.2934 4.31657 98.8955 4.28895 99.5024C4.26762 100.023 4.44685 100.532 4.78969 100.925C5.00632 101.107 5.25703 101.244 5.52716 101.328C5.79729 101.412 6.08146 101.442 6.36311 101.415C7.06032 101.4 7.75473 101.322 8.43789 101.182L11.2581 87.9817H15.5697L12.1172 104.183Z" fill="url(#paint5_linear_4432_5859)"/>
<path d="M39.005 91.8463H34.4855L31.753 104.65H27.4643L30.1917 91.8463H25.4619L26.2772 87.9753H40.1456L39.005 91.8463Z" fill="url(#paint6_linear_4432_5859)"/>
<path d="M50.8896 104.183C48.781 104.687 46.6242 104.961 44.4568 105C42.9343 105.095 41.4333 104.603 40.2627 103.624C39.7597 103.142 39.3661 102.558 39.1087 101.911C38.8514 101.263 38.7363 100.568 38.7713 99.8725C38.839 98.8209 38.9877 97.7761 39.2161 96.7473L41.0812 87.9785H45.4157L43.3409 97.7068C43.1828 98.2934 43.0893 98.8955 43.0619 99.5024C43.0406 100.023 43.2198 100.532 43.5627 100.925C43.7793 101.107 44.0299 101.244 44.3001 101.328C44.5702 101.412 44.8544 101.442 45.1361 101.415C45.8331 101.4 46.5273 101.322 47.2102 101.182L50.0311 87.9817H54.3427L50.8896 104.183Z" fill="url(#paint7_linear_4432_5859)"/>
<path d="M66.5969 95.7409C65.9139 96.7085 64.9895 97.4803 63.9159 97.9796L65.9443 104.65H61.5386L60.1171 99.0993C59.6511 99.1307 59.3403 99.1462 59.1848 99.1458H58.6968L57.5314 104.65H53.2197L56.7625 87.9754C58.4311 87.7469 60.1131 87.6298 61.7972 87.625C63.3589 87.5318 64.9007 88.0131 66.1324 88.9781C66.6086 89.4033 66.9834 89.9299 67.2294 90.5191C67.4754 91.1083 67.5863 91.7452 67.5539 92.383C67.5778 93.5729 67.2444 94.7426 66.5969 95.7409ZM62.6106 91.5443C62.2313 91.2142 61.7373 91.0468 61.2355 91.0783C60.9552 91.0782 60.6752 91.0937 60.3967 91.1247L59.4174 95.7892H60.0002C60.4237 95.817 60.8485 95.7591 61.2491 95.6188C61.6497 95.4785 62.0179 95.2588 62.3317 94.9728C62.5909 94.6914 62.7905 94.3604 62.9186 93.9998C63.0467 93.6393 63.1006 93.2565 63.0771 92.8745C63.0981 92.3873 62.9311 91.9105 62.6106 91.5431V91.5443Z" fill="url(#paint8_linear_4432_5859)"/>
<path d="M81.2089 104.674H77.2931L73.284 95.1114L71.3261 104.649H67.2471L70.7898 87.9773H74.7062L78.6918 97.5854L80.6497 87.9773H84.751L81.2089 104.674Z" fill="url(#paint9_linear_4432_5859)"/>
<path d="M16.2905 99.6824L17.0137 96.2539H25.8003L25.0777 99.6824H16.2905Z" fill="url(#paint10_linear_4432_5859)"/>
<path d="M84.7617 99.6824L85.4849 96.2539H94.2714L93.5489 99.6824H84.7617Z" fill="url(#paint11_linear_4432_5859)"/>
<g opacity="0.65">
<path opacity="0.65" d="M24.9709 97.5537L25.1583 96.7748H17.4355L17.248 97.5537H24.9709Z" fill="url(#paint12_linear_4432_5859)"/>
<path opacity="0.65" d="M13.1396 96.8917L14.9266 88.4987H11.6787L9.88477 96.8917H13.1396Z" fill="url(#paint13_linear_4432_5859)"/>
<path opacity="0.65" d="M4.20872 96.8917L5.99947 88.4987H2.72873L0.953877 96.8447L0.944336 96.8943L4.20872 96.8917Z" fill="url(#paint14_linear_4432_5859)"/>
<path opacity="0.65" d="M29.6515 96.8917H32.8759L34.0617 91.3256H38.616L39.451 88.4955H26.7011L26.105 91.3256H30.8379L29.6515 96.8917Z" fill="url(#paint15_linear_4432_5859)"/>
<path opacity="0.65" d="M51.9092 96.8917L53.6961 88.4987H50.4482L48.6543 96.8917H51.9092Z" fill="url(#paint16_linear_4432_5859)"/>
<path opacity="0.65" d="M42.9776 96.8917L44.769 88.4987H41.4982L39.7234 96.8447L39.7139 96.8943L42.9776 96.8917Z" fill="url(#paint17_linear_4432_5859)"/>
<path opacity="0.65" d="M64.7075 96.8917C65.2757 96.5049 65.7689 96.0177 66.1627 95.4541C66.7511 94.5396 67.0535 93.4704 67.0314 92.383C67.0644 91.8199 66.9699 91.2566 66.7549 90.7352C66.5399 90.2138 66.21 89.7477 65.7897 89.3717C64.6504 88.4928 63.2311 88.0572 61.7952 88.1458C60.2565 88.1502 58.7195 88.2498 57.1931 88.444L55.3979 96.8917H64.7075ZM59.9676 90.6478L60.3419 90.6058C60.6394 90.5728 60.9385 90.5563 61.2379 90.5562C61.5519 90.5237 61.8693 90.5609 62.1674 90.6652C62.4654 90.7694 62.7368 90.9383 62.9622 91.1596C63.1875 91.3809 63.3613 91.6492 63.4711 91.9454C63.5809 92.2416 63.624 92.5584 63.5973 92.8732C63.6214 93.3238 63.5542 93.7745 63.3999 94.1984C63.2457 94.6224 63.0074 95.0107 62.6994 95.3403C62.3377 95.6751 61.9122 95.9335 61.4484 96.1C60.9846 96.2665 60.4919 96.3377 60 96.3093H58.7761L59.9676 90.6478Z" fill="url(#paint18_linear_4432_5859)"/>
<path opacity="0.65" d="M72.3871 96.8917L73.1128 93.3565L74.5947 96.8917H77.8413L74.3583 88.4987H71.2115L69.4277 96.8917H72.3871Z" fill="url(#paint19_linear_4432_5859)"/>
<path opacity="0.65" d="M82.3277 96.8917L84.107 88.4987H81.072L79.3613 96.8917H82.3277Z" fill="url(#paint20_linear_4432_5859)"/>
<path opacity="0.65" d="M93.442 97.5537L93.6295 96.7748H85.9067L85.7192 97.5537H93.442Z" fill="url(#paint21_linear_4432_5859)"/>
</g>
<g style="mix-blend-mode:overlay" opacity="0.5">
<path style="mix-blend-mode:overlay" opacity="0.5" d="M109.131 96.1637L109.158 96.0289H104.503L104.468 96.1637H109.131Z" fill="url(#paint22_linear_4432_5859)"/>
<path style="mix-blend-mode:overlay" opacity="0.5" d="M100.31 96.1641C100.428 95.0318 100.761 93.9324 101.293 92.9258C102.195 91.2765 103.439 90.4403 104.989 90.4403C105.59 90.4578 106.18 90.6006 106.723 90.8596C107.265 91.1187 107.748 91.4883 108.139 91.9447L109.918 89.7079C109.265 89.072 108.489 88.5765 107.637 88.2518C106.786 87.9272 105.877 87.7803 104.966 87.8201C103.834 87.7707 102.706 87.9896 101.674 88.459C100.643 88.9283 99.7362 89.6349 99.0291 90.5211C97.7504 92.1433 96.9759 94.1055 96.8018 96.1641H100.31Z" fill="url(#paint23_linear_4432_5859)"/>
<path style="mix-blend-mode:overlay" opacity="0.5" d="M122.1 96.1637C122.456 95.8608 122.77 95.5124 123.035 95.1273C123.624 94.2131 123.927 93.1437 123.905 92.0562C123.937 91.4932 123.843 90.93 123.628 90.4086C123.413 89.8873 123.083 89.4211 122.663 89.0449C121.524 88.1664 120.104 87.7311 118.669 87.8196C117.13 87.8239 115.592 87.9235 114.066 88.1178L112.356 96.1637H122.1ZM116.838 90.3216L117.211 90.2797C117.509 90.2463 117.809 90.2295 118.109 90.2295C118.423 90.1966 118.741 90.2336 119.039 90.3377C119.337 90.4419 119.609 90.6106 119.834 90.8319C120.06 91.0532 120.234 91.3217 120.344 91.618C120.454 91.9144 120.497 92.2314 120.471 92.5464C120.495 92.9969 120.428 93.4477 120.273 93.8715C120.119 94.2954 119.88 94.6836 119.572 95.0128C119.211 95.3476 118.785 95.606 118.321 95.7725C117.858 95.939 117.365 96.0102 116.873 95.9819H115.649L116.838 90.3216Z" fill="url(#paint24_linear_4432_5859)"/>
<path style="mix-blend-mode:overlay" opacity="0.5" d="M134.223 96.1637L134.546 94.6758H129.958L130.784 90.7661H136.657L137.206 88.1693H128.084L126.386 96.1637H134.223Z" fill="url(#paint25_linear_4432_5859)"/>
<path style="mix-blend-mode:overlay" opacity="0.5" d="M146.411 96.1637L146.734 94.6758H142.146L142.972 90.7661H148.846L149.395 88.1693H140.272L138.575 96.1637H146.411Z" fill="url(#paint26_linear_4432_5859)"/>
<path style="mix-blend-mode:overlay" opacity="0.5" d="M153.719 96.1637L154.362 93.031L155.675 96.1637H158.923L155.605 88.1681H152.46L150.761 96.1625L153.719 96.1637Z" fill="url(#paint27_linear_4432_5859)"/>
<path style="mix-blend-mode:overlay" opacity="0.5" d="M163.661 96.1637L165.358 88.1693H162.323L160.694 96.1637H163.661Z" fill="url(#paint28_linear_4432_5859)"/>
</g>
<path d="M69.8675 71.5728C68.0809 69.9969 66.674 68.0368 65.7522 65.8394C60.0705 51.1624 70.977 33.1046 70.977 33.1046C72.3718 30.6816 73.9251 28.3534 75.6267 26.1352L72.3636 23.7038L73.5138 22.1543L58.234 11.8537C37.3533 40.7767 52.6813 64.6873 69.8675 71.5728ZM65.5597 20.7472L70.2093 23.7025L67.1706 28.491L62.5177 25.5395L65.5597 20.7472ZM56.8284 23.2339L60.5141 25.9044L57.9722 29.4238L54.2865 26.7533L56.8284 23.2339ZM82.6219 17.9838L79.9784 22.2115L75.4399 19.3706L78.0834 15.1429L82.6219 17.9838ZM89.131 5.45147L86.6253 9.23851L82.9396 6.79563L85.4453 3.00922L89.131 5.45147ZM80.2344 8.22372L77.1283 12.6682L72.9819 9.76944L76.0874 5.32493L80.2294 8.22245L80.2344 8.22372ZM70.4254 8.72475L66.1042 15.1753L59.9205 11.0284L64.2417 4.57719L70.426 8.72475H70.4254ZM84.6484 -1.30367L81.6051 3.16945L77.3475 0.271943L80.3901 -4.20117L84.6478 -1.30367H84.6484ZM74.8374 1.35349L72.3814 5.29569L68.4669 2.8528L70.923 -1.08939L74.8374 1.35349Z" fill="url(#paint29_linear_4432_5859)"/>
<path d="M132.792 1.21231L130.913 5.05785L126.846 3.06832L128.725 -0.777226L132.792 1.21231H132.792ZM123.481 -7.65253L118.692 -10.0051L116.493 -5.51993L121.283 -3.16734L123.481 -7.65253ZM126.554 6.99651L121.222 4.46461L118.912 9.33322L124.245 11.8651L126.554 6.99651ZM128.632 16.3096L123.572 13.8686L121.252 18.6819L126.236 21.2011L128.632 16.3096ZM116.524 8.9886L109.344 5.4171L106.052 12.0419L113.147 15.7965L116.528 8.9886H116.524ZM121.45 0.172716L117.022 -1.99739L114.96 2.21439L119.388 4.38449L121.45 0.172716ZM66.7172 65.4401C66.0417 63.7756 65.6023 62.0247 65.412 60.2383C65.406 60.2296 65.4033 60.219 65.4044 60.2084C64.7962 55.0766 65.7068 48.7939 68.0701 41.8963C68.0002 53.6987 79.4634 57.2073 92.3614 39.1737C97.0003 32.6881 106.151 13.9602 106.151 13.9602L115.893 19.3763L115.347 20.3796L119.868 22.8225L120.384 21.8687L124.675 24.1183C115.859 45.1366 96.5873 79.6091 74.4445 73.0657C72.8696 72.501 71.4278 71.6182 70.2085 70.4721C68.6881 69.0725 67.4954 67.3542 66.7153 65.4401H66.7172ZM109.297 24.0897L113.813 26.3514L115.893 22.1898L111.373 19.932L109.297 24.0897ZM111.913 33.1046L117.156 35.5469L119.416 30.6878L114.173 28.2475L111.913 33.1046Z" fill="url(#paint30_linear_4432_5859)"/>
<path style="mix-blend-mode:soft-light" d="M79.9912 71.9745C78.2953 71.971 76.6087 71.7237 74.9831 71.2401C73.7055 70.7596 72.5337 70.0346 71.5332 69.1056C70.2014 67.882 69.1566 66.3788 68.4734 64.7037C67.8678 63.2034 67.474 61.626 67.3035 60.017L67.2438 59.5039C66.9822 56.1065 67.2283 52.689 67.9739 49.3642C68.3612 50.003 68.8224 50.5939 69.3478 51.1248C70.156 51.9376 71.1199 52.5788 72.1817 53.0101C73.2435 53.4413 74.3813 53.6537 75.5271 53.6345C81.2246 53.6345 87.7528 48.8937 93.9098 40.2857C97.7804 34.8728 104.542 21.4923 106.972 16.6021L113.313 20.1271L112.756 21.1508L120.636 25.4071L121.164 24.4349L122.232 24.9945C116.645 37.9153 100.008 71.9745 79.9912 71.9745Z" fill="url(#paint31_linear_4432_5859)"/>
<path style="mix-blend-mode:soft-light" d="M63.7922 66.041C57.8158 61.7203 53.4296 55.549 51.3123 48.4823C49.1435 40.9947 48.7437 29.1097 58.7199 14.481L70.7937 22.6197L69.6982 24.0954L72.9715 26.5345C71.645 28.3313 70.4278 30.2064 69.3265 32.1496C68.6465 33.2871 58.3157 50.9436 63.7922 66.041Z" fill="url(#paint32_linear_4432_5859)"/>
</g>
<defs>
<linearGradient id="paint0_linear_4432_5859" x1="99.4478" y1="109.767" x2="105.644" y2="94.027" gradientUnits="userSpaceOnUse">
<stop stop-color="#76E704"/>
<stop offset="0.753" stop-color="#7BFC03"/>
</linearGradient>
<linearGradient id="paint1_linear_4432_5859" x1="113.461" y1="113.576" x2="119.521" y2="97.7488" gradientUnits="userSpaceOnUse">
<stop stop-color="#76E704"/>
<stop offset="0.753" stop-color="#7BFC03"/>
</linearGradient>
<linearGradient id="paint2_linear_4432_5859" x1="125.504" y1="116.83" x2="131.775" y2="101.133" gradientUnits="userSpaceOnUse">
<stop stop-color="#76E704"/>
<stop offset="0.753" stop-color="#7BFC03"/>
</linearGradient>
<linearGradient id="paint3_linear_4432_5859" x1="136.854" y1="119.898" x2="143.125" y2="104.201" gradientUnits="userSpaceOnUse">
<stop stop-color="#76E704"/>
<stop offset="0.753" stop-color="#7BFC03"/>
</linearGradient>
<linearGradient id="paint4_linear_4432_5859" x1="149.826" y1="123.417" x2="153.895" y2="106.909" gradientUnits="userSpaceOnUse">
<stop stop-color="#76E704"/>
<stop offset="0.753" stop-color="#7BFC03"/>
</linearGradient>
<linearGradient id="paint5_linear_4432_5859" x1="10.0709" y1="85.5258" x2="15.2967" y2="69.3601" gradientUnits="userSpaceOnUse">
<stop stop-color="#76E704"/>
<stop offset="0.753" stop-color="#7BFC03"/>
</linearGradient>
<linearGradient id="paint6_linear_4432_5859" x1="32.2458" y1="91.5438" x2="37.8432" y2="75.5202" gradientUnits="userSpaceOnUse">
<stop stop-color="#76E704"/>
<stop offset="0.753" stop-color="#7BFC03"/>
</linearGradient>
<linearGradient id="paint7_linear_4432_5859" x1="46.1801" y1="95.3368" x2="51.4238" y2="79.1555" gradientUnits="userSpaceOnUse">
<stop stop-color="#76E704"/>
<stop offset="0.753" stop-color="#7BFC03"/>
</linearGradient>
<linearGradient id="paint8_linear_4432_5859" x1="60.576" y1="99.2155" x2="66.618" y2="83.3847" gradientUnits="userSpaceOnUse">
<stop stop-color="#76E704"/>
<stop offset="0.753" stop-color="#7BFC03"/>
</linearGradient>
<linearGradient id="paint9_linear_4432_5859" x1="74.2136" y1="102.921" x2="78.2818" y2="86.3983" gradientUnits="userSpaceOnUse">
<stop stop-color="#76E704"/>
<stop offset="0.753" stop-color="#7BFC03"/>
</linearGradient>
<linearGradient id="paint10_linear_4432_5859" x1="23.4323" y1="89.1536" x2="24.0156" y2="72.5917" gradientUnits="userSpaceOnUse">
<stop stop-color="#76E704"/>
<stop offset="0.753" stop-color="#7BFC03"/>
</linearGradient>
<linearGradient id="paint11_linear_4432_5859" x1="87.2247" y1="106.45" x2="87.8067" y2="89.8888" gradientUnits="userSpaceOnUse">
<stop stop-color="#76E704"/>
<stop offset="0.753" stop-color="#7BFC03"/>
</linearGradient>
<linearGradient id="paint12_linear_4432_5859" x1="21.2032" y1="105.636" x2="21.2032" y2="89.5162" gradientUnits="userSpaceOnUse">
<stop stop-color="white"/>
<stop offset="1" stop-color="white" stop-opacity="0"/>
</linearGradient>
<linearGradient id="paint13_linear_4432_5859" x1="12.4057" y1="105.629" x2="12.4057" y2="89.5226" gradientUnits="userSpaceOnUse">
<stop stop-color="#3C0C0C"/>
<stop offset="1" stop-color="white" stop-opacity="0"/>
</linearGradient>
<linearGradient id="paint14_linear_4432_5859" x1="3.4719" y1="105.634" x2="3.4719" y2="89.5229" gradientUnits="userSpaceOnUse">
<stop stop-color="#3C0C0C"/>
<stop offset="1" stop-color="white" stop-opacity="0"/>
</linearGradient>
<linearGradient id="paint15_linear_4432_5859" x1="32.778" y1="105.632" x2="32.778" y2="89.5198" gradientUnits="userSpaceOnUse">
<stop stop-color="#3C0C0C"/>
<stop offset="1" stop-color="white" stop-opacity="0"/>
</linearGradient>
<linearGradient id="paint16_linear_4432_5859" x1="51.1752" y1="105.629" x2="51.1752" y2="89.5226" gradientUnits="userSpaceOnUse">
<stop stop-color="#3C0C0C"/>
<stop offset="1" stop-color="white" stop-opacity="0"/>
</linearGradient>
<linearGradient id="paint17_linear_4432_5859" x1="42.2414" y1="105.634" x2="42.2414" y2="89.5229" gradientUnits="userSpaceOnUse">
<stop stop-color="#3C0C0C"/>
<stop offset="1" stop-color="white" stop-opacity="0"/>
</linearGradient>
<linearGradient id="paint18_linear_4432_5859" x1="61.2179" y1="105.649" x2="61.2179" y2="89.5094" gradientUnits="userSpaceOnUse">
<stop stop-color="white"/>
<stop offset="1" stop-color="white" stop-opacity="0"/>
</linearGradient>
<linearGradient id="paint19_linear_4432_5859" x1="73.6345" y1="105.629" x2="73.6345" y2="89.5226" gradientUnits="userSpaceOnUse">
<stop stop-color="#3C0C0C"/>
<stop offset="1" stop-color="white" stop-opacity="0"/>
</linearGradient>
<linearGradient id="paint20_linear_4432_5859" x1="81.7342" y1="105.629" x2="81.7342" y2="89.5226" gradientUnits="userSpaceOnUse">
<stop stop-color="#3C0C0C"/>
<stop offset="1" stop-color="white" stop-opacity="0"/>
</linearGradient>
<linearGradient id="paint21_linear_4432_5859" x1="89.6744" y1="105.636" x2="89.6744" y2="89.5162" gradientUnits="userSpaceOnUse">
<stop stop-color="white"/>
<stop offset="1" stop-color="white" stop-opacity="0"/>
</linearGradient>
<linearGradient id="paint22_linear_4432_5859" x1="106.813" y1="105.615" x2="106.813" y2="89.5315" gradientUnits="userSpaceOnUse">
<stop stop-color="white"/>
<stop offset="1" stop-color="white" stop-opacity="0"/>
</linearGradient>
<linearGradient id="paint23_linear_4432_5859" x1="103.36" y1="105.642" x2="103.36" y2="89.5085" gradientUnits="userSpaceOnUse">
<stop stop-color="white"/>
<stop offset="1" stop-color="white" stop-opacity="0"/>
</linearGradient>
<linearGradient id="paint24_linear_4432_5859" x1="118.134" y1="105.647" x2="118.134" y2="89.5045" gradientUnits="userSpaceOnUse">
<stop stop-color="white"/>
<stop offset="1" stop-color="white" stop-opacity="0"/>
</linearGradient>
<linearGradient id="paint25_linear_4432_5859" x1="131.796" y1="105.637" x2="131.796" y2="89.5204" gradientUnits="userSpaceOnUse">
<stop stop-color="white"/>
<stop offset="1" stop-color="white" stop-opacity="0"/>
</linearGradient>
<linearGradient id="paint26_linear_4432_5859" x1="143.985" y1="105.637" x2="143.985" y2="89.5204" gradientUnits="userSpaceOnUse">
<stop stop-color="white"/>
<stop offset="1" stop-color="white" stop-opacity="0"/>
</linearGradient>
<linearGradient id="paint27_linear_4432_5859" x1="154.842" y1="105.639" x2="154.842" y2="89.5194" gradientUnits="userSpaceOnUse">
<stop stop-color="white"/>
<stop offset="1" stop-color="white" stop-opacity="0"/>
</linearGradient>
<linearGradient id="paint28_linear_4432_5859" x1="163.026" y1="105.637" x2="163.026" y2="89.5204" gradientUnits="userSpaceOnUse">
<stop stop-color="white"/>
<stop offset="1" stop-color="white" stop-opacity="0"/>
</linearGradient>
<linearGradient id="paint29_linear_4432_5859" x1="58.3476" y1="49.1437" x2="92.6586" y2="36.0847" gradientUnits="userSpaceOnUse">
<stop stop-color="#73DB05"/>
<stop offset="0.502" stop-color="#77ED03"/>
<stop offset="1" stop-color="#7BFC03"/>
</linearGradient>
<linearGradient id="paint30_linear_4432_5859" x1="82.8572" y1="57.1858" x2="130.445" y2="6.07489" gradientUnits="userSpaceOnUse">
<stop stop-color="#73DB05"/>
<stop offset="0.502" stop-color="#77ED03"/>
<stop offset="1" stop-color="#7BFC03"/>
</linearGradient>
<linearGradient id="paint31_linear_4432_5859" x1="96.6153" y1="49.9363" x2="108.129" y2="94.2056" gradientUnits="userSpaceOnUse">
<stop stop-color="white" stop-opacity="0"/>
<stop offset="0.081" stop-color="white" stop-opacity="0.082"/>
<stop offset="1" stop-color="white"/>
</linearGradient>
<linearGradient id="paint32_linear_4432_5859" x1="43.7488" y1="36.394" x2="69.2006" y2="37.5028" gradientUnits="userSpaceOnUse">
<stop stop-color="white"/>
<stop offset="1" stop-color="white" stop-opacity="0"/>
</linearGradient>
<clipPath id="clip0_4432_5859">
<rect width="166" height="115" fill="white"/>
</clipPath>
</defs>
</svg>
